<svg xmlns="http://www.w3.org/2000/svg" width="240" height="135" viewBox="0 0 240 135"><rect x="-0.02" y="0.23" width="240" height="134.92" style="fill:#fff"/><path d="M83.61,39V28.86h5l-.09,1H84.89v3.75h3.33v1H84.89V39Zm10.73-4.67q0,.45,0,.78c0,.22,0,.42-.06.58h-3.6a3.12,3.12,0,0,0,.54,1.84,1.65,1.65,0,0,0,1.37.59,2.38,2.38,0,0,0,.56-.07,1.92,1.92,0,0,0,.43-.18,1.66,1.66,0,0,0,.31-.21l.19-.16.44.84-.22.21a1.64,1.64,0,0,1-.4.28,2.59,2.59,0,0,1-.62.24,3.12,3.12,0,0,1-.87.11A3.19,3.19,0,0,1,91.19,39a2.31,2.31,0,0,1-.92-.69,3.56,3.56,0,0,1-.58-1.17,6.61,6.61,0,0,1-.2-1.72,5.59,5.59,0,0,1,.21-1.62,3.19,3.19,0,0,1,.58-1.12,2.31,2.31,0,0,1,.85-.66,2.66,2.66,0,0,1,1.05-.21,2,2,0,0,1,1.59.64A2.79,2.79,0,0,1,94.34,34.33ZM92.1,32.74a1.2,1.2,0,0,0-1,.53,2.93,2.93,0,0,0-.44,1.53h2.57a1.09,1.09,0,0,0,0-.22,2.81,2.81,0,0,0,0-.3A2,2,0,0,0,93,33.14,1,1,0,0,0,92.1,32.74Zm3.5,2.84a5.15,5.15,0,0,1,.28-1.8,3.48,3.48,0,0,1,.72-1.16,2.58,2.58,0,0,1,1-.62,3.38,3.38,0,0,1,1.12-.19,3.33,3.33,0,0,1,.59.05,2.49,2.49,0,0,1,.41.13V28.61l1.19-.13V39H99.82v-.75h0a1.4,1.4,0,0,1-.16.24,1.58,1.58,0,0,1-.32.31,2,2,0,0,1-.52.27,2.18,2.18,0,0,1-.72.11,2.38,2.38,0,0,1-.95-.2,2,2,0,0,1-.78-.63,3.16,3.16,0,0,1-.54-1.12A6.11,6.11,0,0,1,95.6,35.58Zm2.8,2.54a2,2,0,0,0,.5-.07,1.93,1.93,0,0,0,.38-.19,1.25,1.25,0,0,0,.27-.23,1.4,1.4,0,0,0,.17-.2V33.08a1.68,1.68,0,0,0-.38-.18,1.62,1.62,0,0,0-.53-.07A2,2,0,0,0,98,33a1.47,1.47,0,0,0-.63.46,2.64,2.64,0,0,0-.42.84,4.53,4.53,0,0,0-.15,1.26A5.32,5.32,0,0,0,97,36.76a2.32,2.32,0,0,0,.35.79,1.37,1.37,0,0,0,.5.44A1.45,1.45,0,0,0,98.4,38.12Zm8.86-3.79q0,.45,0,.78c0,.22,0,.42-.06.58h-3.6a3.12,3.12,0,0,0,.54,1.84,1.67,1.67,0,0,0,1.37.59,2.38,2.38,0,0,0,.56-.07,1.92,1.92,0,0,0,.43-.18,1.66,1.66,0,0,0,.31-.21l.19-.16.44.84-.22.21a1.64,1.64,0,0,1-.4.28,2.59,2.59,0,0,1-.62.24,3.12,3.12,0,0,1-.87.11,3.19,3.19,0,0,1-1.19-.22,2.28,2.28,0,0,1-.91-.69,3.38,3.38,0,0,1-.59-1.17,6.61,6.61,0,0,1-.2-1.72,5.59,5.59,0,0,1,.21-1.62,3.19,3.19,0,0,1,.58-1.12,2.26,2.26,0,0,1,.86-.66,2.58,2.58,0,0,1,1-.21,2,2,0,0,1,1.59.64A2.79,2.79,0,0,1,107.26,34.33ZM105,32.74a1.21,1.21,0,0,0-1,.53,2.93,2.93,0,0,0-.44,1.53h2.57a1.09,1.09,0,0,0,0-.22,2.81,2.81,0,0,0,0-.3,2,2,0,0,0-.29-1.14A1,1,0,0,0,105,32.74ZM112,33a.54.54,0,0,0-.19-.07,1.4,1.4,0,0,0-.4-.05,1.21,1.21,0,0,0-.87.3,1.77,1.77,0,0,0-.45.66V39h-1.19V32h1.09v.95h0a2.14,2.14,0,0,1,.2-.4,1.24,1.24,0,0,1,.29-.36,1.44,1.44,0,0,1,.42-.24,1.64,1.64,0,0,1,.58-.09,1.4,1.4,0,0,1,.4.05l.25.07Zm.69,4.22a2,2,0,0,1,.24-1,1.76,1.76,0,0,1,.63-.67,2.79,2.79,0,0,1,.93-.37,6,6,0,0,1,1.14-.11H116v-.67a1.85,1.85,0,0,0-.32-1.24,1.18,1.18,0,0,0-.89-.34,1.62,1.62,0,0,0-.88.23,6.1,6.1,0,0,0-.56.4l-.5-.79a2.81,2.81,0,0,1,.3-.26,2.68,2.68,0,0,1,.45-.28,3.25,3.25,0,0,1,.6-.22,3,3,0,0,1,.77-.09,2.13,2.13,0,0,1,1.64.6,2.76,2.76,0,0,1,.56,1.94v3.22c0,.3,0,.6,0,.89a5.46,5.46,0,0,0,.06.58h-1.13l0-.78h0a1.69,1.69,0,0,1-.18.3,1.42,1.42,0,0,1-.29.31,1.61,1.61,0,0,1-.43.24,1.51,1.51,0,0,1-.59.11,1.85,1.85,0,0,1-.74-.15,1.94,1.94,0,0,1-.6-.41,1.74,1.74,0,0,1-.4-.63A2.21,2.21,0,0,1,112.64,37.21Zm2.13.95a1.2,1.2,0,0,0,.44-.07,1.45,1.45,0,0,0,.57-.4,2.46,2.46,0,0,1,.17-.22V35.91l-.38,0a2.87,2.87,0,0,0-1.3.29.93.93,0,0,0-.44.86,1.14,1.14,0,0,0,.25.81A.9.9,0,0,0,114.77,38.16Zm5.32-.81a1.06,1.06,0,0,0,.13.62.49.49,0,0,0,.43.18,1,1,0,0,0,.27,0l.17-.06.1.88a1.85,1.85,0,0,1-.32.12,2.19,2.19,0,0,1-.63.07,1.32,1.32,0,0,1-1-.36,1.83,1.83,0,0,1-.37-1.31V28.61l1.19-.13ZM133,33.91a7.92,7.92,0,0,1-.29,2.31,4.9,4.9,0,0,1-.82,1.65,3.13,3.13,0,0,1-1.25,1,4,4,0,0,1-3.19,0,3.2,3.2,0,0,1-1.23-1,4.68,4.68,0,0,1-.79-1.63,8.69,8.69,0,0,1-.28-2.31,7.87,7.87,0,0,1,.3-2.3,4.89,4.89,0,0,1,.81-1.65,3.27,3.27,0,0,1,1.25-1,3.85,3.85,0,0,1,1.6-.33,3.78,3.78,0,0,1,1.6.33A3.11,3.11,0,0,1,132,30a4.5,4.5,0,0,1,.78,1.63A8.27,8.27,0,0,1,133,33.91Zm-1.36,0a5.74,5.74,0,0,0-.69-3.13,2.2,2.2,0,0,0-3.75,0,5.81,5.81,0,0,0-.68,3.11,5.82,5.82,0,0,0,.68,3.13A2.2,2.2,0,0,0,131,37,5.69,5.69,0,0,0,131.65,33.91Zm5.93-1h-1.44V39H135V32.92h-.85v-.8L135,32V30.55a2.7,2.7,0,0,1,.17-1,1.87,1.87,0,0,1,.42-.67,1.43,1.43,0,0,1,.62-.38,2.27,2.27,0,0,1,.75-.12,1.81,1.81,0,0,1,.65.1,2.55,2.55,0,0,1,.35.16l-.25,1-.25-.13a1.16,1.16,0,0,0-.4-.06.8.8,0,0,0-.65.26,1.62,1.62,0,0,0-.22,1V32h1.59Zm4.15,0h-1.44V39H139.1V32.92h-.85v-.8l.85-.16V30.55a2.71,2.71,0,0,1,.16-1,1.89,1.89,0,0,1,.43-.67,1.4,1.4,0,0,1,.61-.38,2.36,2.36,0,0,1,.75-.12,1.78,1.78,0,0,1,.65.1,2.07,2.07,0,0,1,.35.16l-.25,1-.25-.13a1.1,1.1,0,0,0-.39-.06.78.78,0,0,0-.65.26,1.55,1.55,0,0,0-.22,1V32h1.59ZM144.1,39h-1.19V32h1.19Zm-.59-8.76a.76.76,0,0,1-.59-.24.83.83,0,0,1-.22-.61.85.85,0,0,1,.22-.61.79.79,0,0,1,.59-.23.78.78,0,0,1,.57.23.85.85,0,0,1,.22.61.83.83,0,0,1-.22.61A.75.75,0,0,1,143.51,30.24Zm6.33,3.07-.14-.13a1.25,1.25,0,0,0-.24-.18,1.42,1.42,0,0,0-.35-.15,1.37,1.37,0,0,0-.47-.07,1.83,1.83,0,0,0-.71.14,1.57,1.57,0,0,0-.58.45,2.29,2.29,0,0,0-.38.8,4.6,4.6,0,0,0-.14,1.2,5.41,5.41,0,0,0,.13,1.31,2.34,2.34,0,0,0,.34.84,1.31,1.31,0,0,0,.54.46,1.75,1.75,0,0,0,.7.14,1.48,1.48,0,0,0,.83-.19,3,3,0,0,0,.4-.31l.49.82a2.24,2.24,0,0,1-.22.22,1.87,1.87,0,0,1-.36.24,2.46,2.46,0,0,1-.53.2,3.2,3.2,0,0,1-.73.08,3.3,3.3,0,0,1-1.1-.19,2.11,2.11,0,0,1-.9-.64,2.94,2.94,0,0,1-.6-1.14,5.87,5.87,0,0,1-.22-1.75,4.83,4.83,0,0,1,.26-1.72,3.33,3.33,0,0,1,.69-1.14,2.63,2.63,0,0,1,.95-.63,2.79,2.79,0,0,1,1.05-.2,2.91,2.91,0,0,1,.7.07,2,2,0,0,1,.51.19,1.72,1.72,0,0,1,.36.23l.22.21Zm6.16,1q0,.45,0,.78c0,.22,0,.42-.06.58h-3.6a3.12,3.12,0,0,0,.54,1.84,1.68,1.68,0,0,0,1.37.59,2.31,2.31,0,0,0,.56-.07,2.24,2.24,0,0,0,.44-.18,2.77,2.77,0,0,0,.31-.21l.18-.16.44.84-.22.21a1.64,1.64,0,0,1-.4.28,2.5,2.5,0,0,1-.61.24,3.23,3.23,0,0,1-.87.11,3.29,3.29,0,0,1-1.2-.22,2.28,2.28,0,0,1-.91-.69,3.37,3.37,0,0,1-.58-1.17,6.17,6.17,0,0,1-.21-1.72,5.25,5.25,0,0,1,.22-1.62,3,3,0,0,1,.58-1.12,2.23,2.23,0,0,1,.85-.66,2.58,2.58,0,0,1,1-.21,2,2,0,0,1,1.59.64A2.79,2.79,0,0,1,156,34.33Zm-2.23-1.59a1.22,1.22,0,0,0-1,.53,2.93,2.93,0,0,0-.44,1.53h2.58s0-.12,0-.22,0-.19,0-.3a1.89,1.89,0,0,0-.3-1.14A1,1,0,0,0,153.77,32.74ZM83,50.3a5.57,5.57,0,0,1,.22-1.68,3.39,3.39,0,0,1,.62-1.15,2.53,2.53,0,0,1,.9-.67,2.91,2.91,0,0,1,2.17,0,2.31,2.31,0,0,1,.86.67,3.19,3.19,0,0,1,.58,1.15,5.57,5.57,0,0,1,.22,1.68A6,6,0,0,1,88.39,52a3.22,3.22,0,0,1-.61,1.15,2.22,2.22,0,0,1-.91.65,2.82,2.82,0,0,1-1.09.21,2.74,2.74,0,0,1-1.08-.21,2,2,0,0,1-.87-.65A3.19,3.19,0,0,1,83.25,52,5.9,5.9,0,0,1,83,50.3Zm4.33,0a3.94,3.94,0,0,0-.41-2,1.29,1.29,0,0,0-1.15-.64,1.27,1.27,0,0,0-1.14.64,4,4,0,0,0-.4,2,3.79,3.79,0,0,0,.41,2,1.3,1.3,0,0,0,1.15.62A1.27,1.27,0,0,0,87,52.32,3.8,3.8,0,0,0,87.37,50.3ZM93,47.74H91.55v6.08H90.36V47.74H89.5v-.8l.86-.16V45.37a2.61,2.61,0,0,1,.16-1,2.07,2.07,0,0,1,.42-.68,1.6,1.6,0,0,1,.62-.38,2.36,2.36,0,0,1,.75-.12,2,2,0,0,1,.65.1,2.29,2.29,0,0,1,.35.17l-.25,1a1.17,1.17,0,0,0-.25-.12,1,1,0,0,0-.4-.07.79.79,0,0,0-.64.26,1.55,1.55,0,0,0-.22,1v1.27h1.58Zm10.52,6.08H102.1l-.91-3.24H98.12l-.93,3.24H95.9l3.3-10.14h1Zm-2.6-4.22-.79-2.77c-.11-.38-.2-.73-.28-1.07a4.85,4.85,0,0,1-.14-.84h0a4.61,4.61,0,0,1-.14.83c-.09.32-.18.67-.29,1l-.84,2.8Zm3.28.8a4.87,4.87,0,0,1,.28-1.79,3.23,3.23,0,0,1,.72-1.17,2.44,2.44,0,0,1,1-.62,3.58,3.58,0,0,1,1.11-.18,2.54,2.54,0,0,1,.59,0,1.55,1.55,0,0,1,.41.12V43.43l1.19-.13V53.82h-1.08v-.75h0c0,.06-.09.14-.16.25a1.82,1.82,0,0,1-.84.57,2.27,2.27,0,0,1-.72.11,2.34,2.34,0,0,1-1-.2,2,2,0,0,1-.79-.63,3.33,3.33,0,0,1-.53-1.12A5.64,5.64,0,0,1,104.19,50.4ZM107,52.94a1.55,1.55,0,0,0,.5-.07,1.35,1.35,0,0,0,.38-.19,1.23,1.23,0,0,0,.27-.22,1.3,1.3,0,0,0,.17-.21V47.9a1.59,1.59,0,0,0-.37-.18,1.65,1.65,0,0,0-.54-.07,2.19,2.19,0,0,0-.77.14,1.46,1.46,0,0,0-.62.46,2.36,2.36,0,0,0-.42.84,4.15,4.15,0,0,0-.16,1.26,4.78,4.78,0,0,0,.13,1.23,2.47,2.47,0,0,0,.34.8,1.42,1.42,0,0,0,.5.43A1.34,1.34,0,0,0,107,52.94Zm8,.88V49.28a2.34,2.34,0,0,0-.25-1.25.9.9,0,0,0-.81-.38,1.68,1.68,0,0,0-.52.07,1.48,1.48,0,0,0-.4.19,1.5,1.5,0,0,0-.31.24l-.22.23v5.44h-1.19v-7h1.08v.79h0a3.24,3.24,0,0,1,.22-.28A2,2,0,0,1,113,47a2.3,2.3,0,0,1,.52-.26,2.18,2.18,0,0,1,.66-.1,1.78,1.78,0,0,1,1.7.94,1.91,1.91,0,0,1,.28-.31,2.1,2.1,0,0,1,.41-.31,2.3,2.3,0,0,1,.53-.23,2.22,2.22,0,0,1,.65-.09c1.43,0,2.15.83,2.15,2.5v4.73h-1.19V49.28a2,2,0,0,0-.31-1.25,1.12,1.12,0,0,0-.91-.38,1.41,1.41,0,0,0-.84.24,3.08,3.08,0,0,0-.52.47,3.07,3.07,0,0,1,0,.34c0,.12,0,.25,0,.39v4.73Zm7.87,0h-1.2v-7h1.2Zm-.59-8.76a.79.79,0,0,1-.59-.23.86.86,0,0,1-.22-.62.82.82,0,0,1,.22-.6.76.76,0,0,1,.59-.24.75.75,0,0,1,.57.24.82.82,0,0,1,.22.6.86.86,0,0,1-.22.62A.78.78,0,0,1,122.3,45.06Zm6.26,8.76V49.28a2.11,2.11,0,0,0-.3-1.28,1.09,1.09,0,0,0-.92-.39,1.39,1.39,0,0,0-.88.26,3.62,3.62,0,0,0-.56.51v5.44h-1.19v-7h1.09v.79h0a1.13,1.13,0,0,1,.19-.26,1.56,1.56,0,0,1,.38-.32,2.92,2.92,0,0,1,.56-.27,2.07,2.07,0,0,1,.73-.12,2.48,2.48,0,0,1,.85.14,1.42,1.42,0,0,1,.65.45,2,2,0,0,1,.41.8,4.2,4.2,0,0,1,.15,1.21v4.63Zm4.16,0h-1.19v-7h1.19Zm-.59-8.76a.81.81,0,0,1-.59-.23.9.9,0,0,1-.22-.62.87.87,0,0,1,.22-.6.78.78,0,0,1,.59-.24.72.72,0,0,1,.57.24.83.83,0,0,1,.23.6.86.86,0,0,1-.23.62A.75.75,0,0,1,132.13,45.06Zm5.45,3.13a4.1,4.1,0,0,0-.42-.36,1.36,1.36,0,0,0-.81-.22,1.05,1.05,0,0,0-.72.22.66.66,0,0,0-.25.53,1,1,0,0,0,.23.65,3.21,3.21,0,0,0,.7.55l.44.27a4.49,4.49,0,0,1,1.13.91,2,2,0,0,1,.41,1.28,1.92,1.92,0,0,1-.58,1.41A2.28,2.28,0,0,1,136,54a2.86,2.86,0,0,1-.75-.09,4.48,4.48,0,0,1-.56-.2,1.93,1.93,0,0,1-.41-.26,2.12,2.12,0,0,1-.26-.26l.57-.94.21.21a2.32,2.32,0,0,0,.3.22,1.57,1.57,0,0,0,.92.26,1.23,1.23,0,0,0,.8-.23.72.72,0,0,0,.28-.58,1.4,1.4,0,0,0-.06-.43,1.12,1.12,0,0,0-.2-.33,2.21,2.21,0,0,0-.32-.28l-.45-.29-.44-.28a4.46,4.46,0,0,1-1-.9,1.88,1.88,0,0,1-.38-1.21,1.58,1.58,0,0,1,.16-.72,1.72,1.72,0,0,1,.43-.58,2.1,2.1,0,0,1,.65-.38,2.38,2.38,0,0,1,.81-.14,2.81,2.81,0,0,1,.7.08,2,2,0,0,1,.51.21,1.66,1.66,0,0,1,.35.25l.23.21Zm5.12-.45h-1.54v3.91a1.88,1.88,0,0,0,.19,1,.73.73,0,0,0,.64.27,1.27,1.27,0,0,0,.46-.07,1.52,1.52,0,0,0,.28-.13l.16.95a2.73,2.73,0,0,1-.35.19,2,2,0,0,1-.75.12,1.75,1.75,0,0,1-1.37-.51,2.52,2.52,0,0,1-.45-1.68V47.74h-.86v-.8l.86-.17.13-2h1.06v2h1.69Zm4.45.07-.19-.07a1.37,1.37,0,0,0-.39-.05,1.18,1.18,0,0,0-.88.31,1.74,1.74,0,0,0-.45.65v5.17h-1.19v-7h1.09v.95h0a2.42,2.42,0,0,1,.19-.4,1.64,1.64,0,0,1,.29-.35,1.27,1.27,0,0,1,.42-.25,2,2,0,0,1,.58-.08,1.53,1.53,0,0,1,.41,0l.24.07Zm.69,4.22a1.9,1.9,0,0,1,.87-1.7,2.93,2.93,0,0,1,.94-.37,5.78,5.78,0,0,1,1.13-.11h.37v-.67a1.85,1.85,0,0,0-.31-1.24,1.18,1.18,0,0,0-.89-.33,1.63,1.63,0,0,0-.89.22,5.6,5.6,0,0,0-.55.41l-.5-.8.3-.26a2.33,2.33,0,0,1,.45-.28,2.79,2.79,0,0,1,.6-.22,2.93,2.93,0,0,1,.76-.09,2.14,2.14,0,0,1,1.65.6,2.83,2.83,0,0,1,.56,1.94v3.22c0,.31,0,.6,0,.89a5.15,5.15,0,0,0,.06.58h-1.14l0-.78h0a2.18,2.18,0,0,1-.18.31,1.17,1.17,0,0,1-.29.3,1.62,1.62,0,0,1-.43.25,1.47,1.47,0,0,1-.58.1,1.86,1.86,0,0,1-.75-.15,1.65,1.65,0,0,1-.6-.41,1.89,1.89,0,0,1-.4-.62A2.26,2.26,0,0,1,147.84,52ZM150,53a1.23,1.23,0,0,0,.44-.08,2.55,2.55,0,0,0,.33-.17,1.25,1.25,0,0,0,.23-.23l.17-.22V50.74h-.38a2.66,2.66,0,0,0-1.29.3.9.9,0,0,0-.44.85,1.14,1.14,0,0,0,.25.81A.85.85,0,0,0,150,53Zm7.15-5.25h-1.54v3.91a2,2,0,0,0,.19,1,.75.75,0,0,0,.65.27,1.18,1.18,0,0,0,.45-.07,1.25,1.25,0,0,0,.28-.13l.17.95a2.43,2.43,0,0,1-.36.19,1.89,1.89,0,0,1-.75.12,1.73,1.73,0,0,1-1.36-.51,2.46,2.46,0,0,1-.46-1.68V47.74h-.85v-.8l.85-.17.13-2h1.06v2h1.69Zm2.55,6.08h-1.19v-7h1.19Zm-.59-8.76a.79.79,0,0,1-.59-.23.86.86,0,0,1-.22-.62.82.82,0,0,1,.22-.6.76.76,0,0,1,.59-.24.72.72,0,0,1,.57.24.82.82,0,0,1,.22.6.86.86,0,0,1-.22.62A.75.75,0,0,1,159.09,45.06Zm2.09,5.24a5.25,5.25,0,0,1,.23-1.68,3.22,3.22,0,0,1,.61-1.15,2.53,2.53,0,0,1,.9-.67,2.91,2.91,0,0,1,2.17,0,2.31,2.31,0,0,1,.86.67,3.36,3.36,0,0,1,.59,1.15,6.71,6.71,0,0,1,0,3.37,3.22,3.22,0,0,1-.61,1.15,2.22,2.22,0,0,1-.91.65,2.81,2.81,0,0,1-1.08.21,2.75,2.75,0,0,1-1.09-.21,2.17,2.17,0,0,1-.87-.65,3.35,3.35,0,0,1-.58-1.15A5.9,5.9,0,0,1,161.18,50.3Zm4.33,0a3.84,3.84,0,0,0-.41-2,1.34,1.34,0,0,0-2.28,0,3.94,3.94,0,0,0-.41,2,3.79,3.79,0,0,0,.41,2,1.3,1.3,0,0,0,1.15.62,1.27,1.27,0,0,0,1.14-.62A3.8,3.8,0,0,0,165.51,50.3Zm6.59,3.52V49.28a2.11,2.11,0,0,0-.3-1.28,1.09,1.09,0,0,0-.92-.39,1.39,1.39,0,0,0-.88.26,3.62,3.62,0,0,0-.56.51v5.44h-1.19v-7h1.09v.79h0a1.82,1.82,0,0,1,.2-.26,1.56,1.56,0,0,1,.38-.32,2.66,2.66,0,0,1,.56-.27,2.07,2.07,0,0,1,.73-.12,2.48,2.48,0,0,1,.85.14,1.47,1.47,0,0,1,.65.45,2.16,2.16,0,0,1,.41.8,4.2,4.2,0,0,1,.15,1.21v4.63Z"/><path d="M48.2,38.29a6.54,6.54,0,0,0,.06-.89c0-.17,0-.37,0-.59,2.58,0,4.85-1.9,4.85-4A3.86,3.86,0,0,0,52,30.37l.27-.06a4.33,4.33,0,0,1,1.46,3c0,2.57-2.57,5-5.51,5m-2.6-8.95a1.77,1.77,0,0,0-.33-.77c0-.26.12-.51.54-.31-.23.24-.05.65-.05.65s.47-.21.37-.52c.69.16.2,1.09-.53.95M45,30.66a2.65,2.65,0,0,0-.54-1.07A1.51,1.51,0,0,0,43.34,29a2.63,2.63,0,0,0-.87.21,2.48,2.48,0,0,1-.27-.76c0-.19.32-.38.93-.38,1.34,0,2.13.61,2.13,1.62a2.53,2.53,0,0,1-.26,1m3.44,17.26a.89.89,0,0,1,.32,0,17.92,17.92,0,0,0,1.93,3.11v0h0a14.1,14.1,0,0,1,2.07-.2h0a.34.34,0,0,1,.24.06.37.37,0,0,1,.07.26,1.45,1.45,0,0,1-.18.67,1.8,1.8,0,0,0-1.42-.43,2.42,2.42,0,0,0-.6.1h-.06l-.06,0,.41.41c.63.63,1.17,1.17,1.17,1.53a.91.91,0,0,1-.4.63,3.55,3.55,0,0,0-1.37-2l-.06,0v.24c0,.16,0,.39,0,.65,0,1.26-.13,1.45-.56,1.45a1,1,0,0,1-.24,0A2.1,2.1,0,0,0,50.08,53v-.59a5.31,5.31,0,0,1,0-.68l0-.1h-.07c-.21,0-.59-.08-.88-.08a1.85,1.85,0,0,0-1.35.35,1.12,1.12,0,0,1-.41-.62c0-.27.16-.29.38-.29l.35,0a9,9,0,0,0,1.5.1h.05v0A10,10,0,0,0,48,48.42c.08-.31.16-.5.46-.5m-8,3.1v0h.05A9,9,0,0,0,42,51l.35,0c.22,0,.38,0,.38.28a1.11,1.11,0,0,1-.41.63,1.84,1.84,0,0,0-1.35-.35c-.29,0-.67.06-.88.08H40l0,.1a5.31,5.31,0,0,1,0,.68V53a2.11,2.11,0,0,0,.35,1.42,1,1,0,0,1-.24,0c-.43,0-.56-.19-.56-1.46,0-.25,0-.49,0-.64l0-.24,0,0a3.48,3.48,0,0,0-1.36,2,.91.91,0,0,1-.41-.63c0-.36.54-.9,1.17-1.53l.36-.36.05,0-.12,0a2.34,2.34,0,0,0-.6-.1,1.8,1.8,0,0,0-1.42.43,1.45,1.45,0,0,1-.18-.67.37.37,0,0,1,.07-.26.34.34,0,0,1,.24-.06h0a14.42,14.42,0,0,1,2.08.2h0v0A17.92,17.92,0,0,0,41.36,48a.87.87,0,0,1,.32-.06c.3,0,.38.2.46.5A10.16,10.16,0,0,0,40.42,51m-4-17.74a4.31,4.31,0,0,1,1.46-3l.27.06A3.86,3.86,0,0,0,37,32.77c0,2.17,2.31,4,4.93,4a5.54,5.54,0,0,0,0,.59,8.37,8.37,0,0,0,0,.89c-3,0-5.57-2.42-5.57-5m19.86,4.56c1.33,2.1,2.37,2.06,3.94,2.06A11.16,11.16,0,0,1,57.64,37L55.21,33.1A5.66,5.66,0,0,0,53.43,30a3.29,3.29,0,0,0,.73-.36c-1.59,0-3.16-.81-4-.81a.81.81,0,0,0-.91.77c0,.49.54,1,1.47,1a4.79,4.79,0,0,0,.77-.08,3.68,3.68,0,0,1,.91,2.24c0,1.7-2,3-4.08,3H48a4.6,4.6,0,0,1-.81-1.94c0-1.35.88-2.45.88-3.79a2.47,2.47,0,0,0-.56-1.56,2.25,2.25,0,0,0,.59-.72,1.32,1.32,0,0,1-.57.07c-1,0-1.78-.25-2.57-.25-.44,0-.56.14-.56.27s0,.1,0,.12a2.13,2.13,0,0,0-.51-.14,3.51,3.51,0,0,0-.74-.07c-1,0-1.29.4-1.29.74a2.88,2.88,0,0,0,.49,1.22,2.78,2.78,0,0,1,1-.31,1.47,1.47,0,0,1,1.19,1,4.62,4.62,0,0,1-.74.06,5.73,5.73,0,0,1-1.69-.33s0,0,0,0,.26.47.78.66a10.18,10.18,0,0,0,1.87.38.83.83,0,0,1-.37.41.17.17,0,0,1-.12,0,8,8,0,0,1-1.81-.54s0,0,0,0c0,.35.92,1.14,1.75,1.44a9.27,9.27,0,0,0-2,3.17h-.34c-2,0-4.08-1.33-4.08-3a3.75,3.75,0,0,1,.91-2.25,4.91,4.91,0,0,0,.77.08c.94,0,1.44-.5,1.48-1a.82.82,0,0,0-.92-.77c-.86,0-2.43.81-4,.81a3.29,3.29,0,0,0,.73.36,5.66,5.66,0,0,0-1.78,3.15L32.48,37a11.17,11.17,0,0,1-2.57,2.93c1.57,0,2.61,0,3.94-2.07l1.24-2a7.35,7.35,0,0,0,.34.76l-2.47,4a11.33,11.33,0,0,1-2.57,2.93c1.57,0,2.61,0,3.94-2.07L36.46,38c.16.17.33.34.5.5l-3,4.81a11.16,11.16,0,0,1-2.57,2.92c1.57,0,2.61,0,3.94-2.07l2.93-4.68.59.35-3.57,5.72a11.16,11.16,0,0,1-2.57,2.92c1.57,0,2.61,0,3.94-2.06l3.68-5.9.66.24-4.16,6.66a11.23,11.23,0,0,1-2.56,2.91c1.57,0,2.61,0,3.93-2.06l4.44-7.1.13,0A3.68,3.68,0,0,1,43,42.3c0,2.22-1.47,4.2-3.22,5.71a1.35,1.35,0,0,0,.48.07A4.46,4.46,0,0,0,41,48a17.54,17.54,0,0,1-1.73,2.74,13.22,13.22,0,0,0-2-.18c-.58,0-.64.33-.64.63a1.54,1.54,0,0,0,.52,1.17c.11-.27.32-.63,1.38-.63h.11c-.31.34-1.28,1.13-1.28,1.76a1.15,1.15,0,0,0,1.06,1,1.55,1.55,0,0,1,0-.35,2.75,2.75,0,0,1,.83-1.53,2.25,2.25,0,0,0,0,.26c0,1.21.11,1.76.88,1.76a1.25,1.25,0,0,0,.72-.26,1.64,1.64,0,0,1-.52-1.5v-.59a4.1,4.1,0,0,0,0-.5,3.24,3.24,0,0,1,.59,0s1.09-.09,1.35.48c.3-.27.73-.66.73-1.08s-.13-.59-.69-.59c-.22,0-.88.13-1.44.13a13.23,13.23,0,0,1,1.4-2,1.56,1.56,0,0,0,.52.81,5.79,5.79,0,0,1,1-2.74A13.83,13.83,0,0,1,44,49.2c0,3-.72,5.22-2.25,5.64a1.33,1.33,0,0,0,1.06.66c.56,0,.86-.64,1.17-1.23.17.44.61,1.52,1.06,1.52s.9-1.08,1.06-1.52c.31.59.62,1.23,1.18,1.23a1.31,1.31,0,0,0,1.06-.66c-1.54-.42-2.26-2.64-2.26-5.64a12.64,12.64,0,0,1,.2-2.39,5.75,5.75,0,0,1,1,2.74,1.65,1.65,0,0,0,.53-.81,13.75,13.75,0,0,1,1.4,2c-.56,0-1.23-.13-1.44-.13-.56,0-.7.31-.7.59s.43.81.73,1.08c.26-.57,1.35-.48,1.35-.48a3.4,3.4,0,0,1,.6,0,2.74,2.74,0,0,0,0,.5c0,.24,0,.41,0,.59a1.65,1.65,0,0,1-.53,1.5,1.26,1.26,0,0,0,.73.26c.76,0,.87-.55.87-1.76a2.25,2.25,0,0,0,0-.26,2.75,2.75,0,0,1,.83,1.53,1.13,1.13,0,0,1,0,.35,1.15,1.15,0,0,0,1.06-1c0-.63-1-1.42-1.28-1.76h.11c1.06,0,1.27.36,1.38.63a1.54,1.54,0,0,0,.53-1.17c0-.3-.07-.63-.64-.63a13.35,13.35,0,0,0-2,.18A18.32,18.32,0,0,1,49.12,48a4.33,4.33,0,0,0,.76,0,1.21,1.21,0,0,0,.49-.07c-1.76-1.52-3.22-3.49-3.22-5.71a3.66,3.66,0,0,1,.2-1.1l.14,0,4.43,7.1c1.33,2.1,2.37,2.06,3.94,2.06a11.51,11.51,0,0,1-2.57-2.91l-4.16-6.66c.23-.07.45-.16.67-.24l3.68,5.9c1.33,2.09,2.37,2.06,3.93,2.06a11.08,11.08,0,0,1-2.56-2.92l-3.58-5.72.6-.35,2.93,4.68c1.32,2.11,2.36,2.07,3.93,2.07a11.08,11.08,0,0,1-2.56-2.92l-3-4.81a5.9,5.9,0,0,0,.5-.5l2.13,3.41c1.33,2.1,2.37,2.07,3.94,2.07a11.17,11.17,0,0,1-2.57-2.93l-2.47-4a7.35,7.35,0,0,0,.34-.76Z"/><path d="M72.63,54.72H68.09V28.77h4.54Z"/><path d="M72.63,80.66H68.09V54.72h4.54Z" style="fill:red"/><path d="M72.63,106.61H68.09V80.66h4.54Z" style="fill:#fc0"/></svg>