<?xml version="1.0" encoding="iso-8859-1"?>
<!-- Generator: Adobe Illustrator 15.1.0, SVG Export Plug-In . SVG Version: 6.00 Build 0)  -->
<!DOCTYPE svg PUBLIC "-//W3C//DTD SVG 1.1//EN" "http://www.w3.org/Graphics/SVG/1.1/DTD/svg11.dtd">
<svg version="1.1" id="Ebene_1" xmlns="http://www.w3.org/2000/svg" xmlns:xlink="http://www.w3.org/1999/xlink" x="0px" y="0px"
	 width="65px" height="65px" viewBox="0 0 65 65" style="enable-background:new 0 0 65 65;" xml:space="preserve">
<circle style="fill:#007194;" cx="32.5" cy="32.5" r="32.5"/>
<g>
	<g>
		<path style="fill:none;stroke:#FFFFFF;stroke-width:2;stroke-linecap:round;stroke-linejoin:round;stroke-miterlimit:10;" d="
			M44.482,29.057c0.729,1.634,1.136,3.438,1.136,5.338c0,7.248-5.871,13.121-13.122,13.121c-7.242,0-13.115-5.873-13.115-13.121
			c0-7.244,5.873-13.117,13.115-13.117"/>
		<path style="fill:none;stroke:#FFFFFF;stroke-width:2;stroke-linecap:round;stroke-linejoin:round;stroke-miterlimit:10;" d="
			M32.497,47.516c-3.623,0-6.559-5.873-6.559-13.121c0-7.244,2.937-13.117,6.559-13.117"/>
		<path style="fill:none;stroke:#FFFFFF;stroke-width:2;stroke-linecap:round;stroke-linejoin:round;stroke-miterlimit:10;" d="
			M32.497,21.278"/>
		<path style="fill:none;stroke:#FFFFFF;stroke-width:2;stroke-linecap:round;stroke-linejoin:round;stroke-miterlimit:10;" d="
			M32.497,47.516c3.621,0,6.557-5.873,6.557-13.121c0-0.889-0.039-1.759-0.123-2.606"/>
		<g>
			<path style="fill:none;stroke:#FFFFFF;stroke-width:2;stroke-linecap:round;stroke-linejoin:round;stroke-miterlimit:10;" d="
				M22.153,26.326c2.401,1.535,6.143,2.525,10.343,2.525c1.054,0,2.077-0.063,3.05-0.177"/>
			<path style="fill:none;stroke:#FFFFFF;stroke-width:2;stroke-linecap:round;stroke-linejoin:round;stroke-miterlimit:10;" d="
				M22.153,42.423c2.401-1.534,6.143-2.521,10.343-2.521c4.199,0,7.946,0.986,10.341,2.521"/>
		</g>
		
			<line style="fill:none;stroke:#FFFFFF;stroke-width:2;stroke-linecap:round;stroke-linejoin:round;stroke-miterlimit:10;" x1="32.497" y1="21.278" x2="32.497" y2="47.471"/>
		
			<line style="fill:none;stroke:#FFFFFF;stroke-width:2;stroke-linecap:round;stroke-linejoin:round;stroke-miterlimit:10;" x1="45.593" y1="34.375" x2="19.401" y2="34.375"/>
	</g>
	<g>
		
			<circle style="fill:none;stroke:#FFFFFF;stroke-width:1.3734;stroke-linecap:round;stroke-linejoin:round;stroke-miterlimit:10;" cx="40.496" cy="21.461" r="1.5"/>
		<g>
			<path style="fill:none;stroke:#FFFFFF;stroke-width:2;stroke-linecap:round;stroke-linejoin:round;stroke-miterlimit:10;" d="
				M45.441,21.46c0,2.734-4.946,8.639-4.946,8.639s-4.948-5.904-4.948-8.639c0-2.728,2.214-4.944,4.948-4.944
				C43.23,16.516,45.441,18.732,45.441,21.46z"/>
		</g>
	</g>
</g>
</svg>
