<?xml version="1.0" encoding="iso-8859-1"?>
<!-- Generator: Adobe Illustrator 15.1.0, SVG Export Plug-In . SVG Version: 6.00 Build 0)  -->
<!DOCTYPE svg PUBLIC "-//W3C//DTD SVG 1.1//EN" "http://www.w3.org/Graphics/SVG/1.1/DTD/svg11.dtd">
<svg version="1.1" id="Ebene_1" xmlns="http://www.w3.org/2000/svg" xmlns:xlink="http://www.w3.org/1999/xlink" x="0px" y="0px"
	 width="65px" height="65px" viewBox="0 0 65 65" style="enable-background:new 0 0 65 65;" xml:space="preserve">
<circle style="fill:#007194;" cx="32.5" cy="32.5" r="32.5"/>
<g>
	<g>
		<g>
			<path style="fill:none;stroke:#FFFFFF;stroke-width:2;stroke-linecap:round;stroke-linejoin:round;stroke-miterlimit:10;" d="
				M49.868,43.886c0,1.194-0.977,2.171-2.171,2.171H17.303c-1.194,0-2.171-0.977-2.171-2.171V23.261
				c0-1.194,0.977-2.171,2.171-2.171h30.394c1.194,0,2.171,0.977,2.171,2.171V43.886z"/>
		</g>
		<g>
			<path style="fill:none;stroke:#FFFFFF;stroke-width:2;stroke-linecap:round;stroke-linejoin:round;stroke-miterlimit:10;" d="
				M37.792,20.004c0,0.597-0.488,1.085-1.086,1.085h-8.412c-0.597,0-1.085-0.488-1.085-1.085V17.71c0-0.597,0.488-1.085,1.085-1.085
				h8.412c0.598,0,1.086,0.488,1.086,1.085V20.004z"/>
		</g>
	</g>
	<g>
		
			<line style="fill:none;stroke:#FFFFFF;stroke-width:2;stroke-linecap:round;stroke-linejoin:round;stroke-miterlimit:10;" x1="27.208" y1="33.573" x2="37.792" y2="33.573"/>
		
			<line style="fill:none;stroke:#FFFFFF;stroke-width:2;stroke-linecap:round;stroke-linejoin:round;stroke-miterlimit:10;" x1="32.5" y1="38.865" x2="32.5" y2="28.281"/>
	</g>
</g>
</svg>
