<?xml version="1.0" encoding="iso-8859-1"?>
<!-- Generator: Adobe Illustrator 15.1.0, SVG Export Plug-In . SVG Version: 6.00 Build 0)  -->
<!DOCTYPE svg PUBLIC "-//W3C//DTD SVG 1.1//EN" "http://www.w3.org/Graphics/SVG/1.1/DTD/svg11.dtd">
<svg version="1.1" id="Ebene_1" xmlns="http://www.w3.org/2000/svg" xmlns:xlink="http://www.w3.org/1999/xlink" x="0px" y="0px"
	 width="65px" height="65px" viewBox="0 0 65 65" style="enable-background:new 0 0 65 65;" xml:space="preserve">
<circle style="fill:#007194;" cx="32.5" cy="32.5" r="32.5"/>
<g>
	<g>
		<path style="fill:none;stroke:#FFFFFF;stroke-width:2;stroke-linecap:round;stroke-linejoin:round;stroke-miterlimit:10;" d="
			M31.458,41.271h5.306c1.211,0,2.197-0.988,2.197-2.195l0,0c0-1.217-0.986-2.195-2.197-2.195h-4.579c-1.631,0-4.313-3.086-10.292,0
			"/>
		<path style="fill:none;stroke:#FFFFFF;stroke-width:2;stroke-linecap:round;stroke-linejoin:round;stroke-miterlimit:10;" d="
			M21.893,46.268h13.753l6.359-1.811l3.464-4.037c0.768-0.896,0.67-2.236-0.22-3.008l0,0c-0.877-0.758-2.201-0.676-2.978,0.188
			l-3.311,3.672h-2.555"/>
		
			<line style="fill:none;stroke:#FFFFFF;stroke-width:2;stroke-linecap:round;stroke-linejoin:round;stroke-miterlimit:10;" x1="21.565" y1="35.922" x2="21.565" y2="47.5"/>
		<path style="fill:none;stroke:#FFFFFF;stroke-width:2;stroke-linecap:round;stroke-linejoin:round;stroke-miterlimit:10;" d="
			M37.93,30.979c0,1.861-1.516,3.369-3.371,3.369c-1.861,0-3.37-1.508-3.37-3.369c0-1.861,1.509-3.371,3.37-3.371
			C36.414,27.608,37.93,29.118,37.93,30.979z"/>
		
			<circle style="fill:none;stroke:#FFFFFF;stroke-width:2;stroke-linecap:round;stroke-linejoin:round;stroke-miterlimit:10;" cx="40.938" cy="24.24" r="3.37"/>
		
			<circle style="fill:none;stroke:#FFFFFF;stroke-width:2;stroke-linecap:round;stroke-linejoin:round;stroke-miterlimit:10;" cx="31.74" cy="20.869" r="3.37"/>
	</g>
	
		<rect x="19.015" y="35.922" style="fill:none;stroke:#FFFFFF;stroke-width:2;stroke-linecap:round;stroke-linejoin:round;stroke-miterlimit:10;" width="2.55" height="11.578"/>
</g>
</svg>
