<?xml version="1.0" encoding="iso-8859-1"?>
<!-- Generator: Adobe Illustrator 15.1.0, SVG Export Plug-In . SVG Version: 6.00 Build 0)  -->
<!DOCTYPE svg PUBLIC "-//W3C//DTD SVG 1.1//EN" "http://www.w3.org/Graphics/SVG/1.1/DTD/svg11.dtd">
<svg version="1.1" id="Ebene_1" xmlns="http://www.w3.org/2000/svg" xmlns:xlink="http://www.w3.org/1999/xlink" x="0px" y="0px"
	 width="65px" height="65px" viewBox="0 0 65 65" style="enable-background:new 0 0 65 65;" xml:space="preserve">
<circle style="fill:#007194;" cx="32.5" cy="32.5" r="32.5"/>
<g>
	<path style="fill:none;stroke:#FFFFFF;stroke-width:2;stroke-linecap:round;stroke-linejoin:round;stroke-miterlimit:10;" d="
		M42.604,39.912H28.71c-2.453,0-4.447-1.989-4.447-4.445v-6.261H47.05v6.261C47.05,37.923,45.063,39.912,42.604,39.912z"/>
	<path style="fill:none;stroke:#FFFFFF;stroke-width:2;stroke-linecap:round;stroke-linejoin:round;stroke-miterlimit:10;" d="
		M36.342,18.5h1.841c4.896,0,8.867,3.972,8.867,8.866v1.84H36.342V18.5z"/>
	
		<line style="fill:none;stroke:#FFFFFF;stroke-width:2;stroke-linecap:round;stroke-linejoin:round;stroke-miterlimit:10;" x1="36.342" y1="29.206" x2="43.912" y2="21.64"/>
	<g>
		<path style="fill:none;stroke:#FFFFFF;stroke-width:2;stroke-linecap:round;stroke-linejoin:round;stroke-miterlimit:10;" d="
			M43.697,44.3c0,1.217-0.984,2.2-2.196,2.2c-1.218,0-2.2-0.983-2.2-2.2c0-1.204,0.982-2.188,2.2-2.188
			C42.713,42.111,43.697,43.096,43.697,44.3z"/>
		<path style="fill:none;stroke:#FFFFFF;stroke-width:2;stroke-linecap:round;stroke-linejoin:round;stroke-miterlimit:10;" d="
			M32.014,44.3c0,1.217-0.984,2.2-2.199,2.2c-1.213,0-2.195-0.983-2.195-2.2c0-1.204,0.982-2.188,2.195-2.188
			C31.03,42.111,32.014,43.096,32.014,44.3z"/>
	</g>
	<path style="fill:none;stroke:#FFFFFF;stroke-width:2;stroke-linecap:round;stroke-linejoin:round;stroke-miterlimit:10;" d="
		M17.951,22.739h1.978c2.395,0,4.334,1.94,4.334,4.334v2.132"/>
</g>
</svg>
