<?xml version="1.0" encoding="iso-8859-1"?>
<!-- Generator: Adobe Illustrator 15.1.0, SVG Export Plug-In . SVG Version: 6.00 Build 0)  -->
<!DOCTYPE svg PUBLIC "-//W3C//DTD SVG 1.1//EN" "http://www.w3.org/Graphics/SVG/1.1/DTD/svg11.dtd">
<svg version="1.1" id="Ebene_1" xmlns="http://www.w3.org/2000/svg" xmlns:xlink="http://www.w3.org/1999/xlink" x="0px" y="0px"
	 width="65px" height="65px" viewBox="0 0 65 65" style="enable-background:new 0 0 65 65;" xml:space="preserve">
<circle style="fill:#007194;" cx="32.5" cy="32.5" r="32.5"/>
<g>
	<g>
		<path style="fill:none;stroke:#FFFFFF;stroke-width:2;stroke-linecap:round;stroke-linejoin:round;stroke-miterlimit:10;" d="
			M43.84,38.579h3.207c0.629,0,1.142-0.51,1.142-1.141v-4.961c0-0.819-0.665-1.483-1.484-1.483H35.309v-9.925H20.453
			c-0.63,0-1.141,0.512-1.141,1.138v15.231c0,0.631,0.51,1.141,1.141,1.141h2.943"/>
		
			<line style="fill:none;stroke:#FFFFFF;stroke-width:2;stroke-linecap:round;stroke-linejoin:round;stroke-miterlimit:10;" x1="28.384" y1="38.579" x2="38.857" y2="38.579"/>
		
			<polyline style="fill:none;stroke:#FFFFFF;stroke-width:2;stroke-linecap:round;stroke-linejoin:round;stroke-miterlimit:10;" points="
			35.309,23.83 40.771,23.83 45.848,30.995 		"/>
		<path style="fill:none;stroke:#FFFFFF;stroke-width:2;stroke-linecap:round;stroke-linejoin:round;stroke-miterlimit:10;" d="
			M28.384,38.579c0,1.372-1.118,2.49-2.495,2.49c-1.376,0-2.493-1.118-2.493-2.49c0-1.381,1.117-2.499,2.493-2.499
			C27.267,36.08,28.384,37.198,28.384,38.579z"/>
		<path style="fill:none;stroke:#FFFFFF;stroke-width:2;stroke-linecap:round;stroke-linejoin:round;stroke-miterlimit:10;" d="
			M43.84,38.579c0,1.372-1.115,2.49-2.488,2.49c-1.381,0-2.494-1.118-2.494-2.49c0-1.381,1.113-2.499,2.494-2.499
			C42.725,36.08,43.84,37.198,43.84,38.579z"/>
	</g>
	<g>
		<g>
			
				<line style="fill:none;stroke:#FFFFFF;stroke-width:2;stroke-linecap:round;stroke-linejoin:round;stroke-miterlimit:10;" x1="30.229" y1="30.493" x2="24.626" y2="30.493"/>
			
				<polyline style="fill:none;stroke:#FFFFFF;stroke-width:2;stroke-linecap:round;stroke-linejoin:round;stroke-miterlimit:10;" points="
				26.319,28.799 24.626,30.493 26.319,32.187 			"/>
		</g>
		<g>
			
				<line style="fill:none;stroke:#FFFFFF;stroke-width:2;stroke-linecap:round;stroke-linejoin:round;stroke-miterlimit:10;" x1="24.626" y1="25.762" x2="30.229" y2="25.762"/>
			
				<polyline style="fill:none;stroke:#FFFFFF;stroke-width:2;stroke-linecap:round;stroke-linejoin:round;stroke-miterlimit:10;" points="
				28.536,27.456 30.229,25.762 28.536,24.072 			"/>
		</g>
	</g>
</g>
</svg>
