<svg xmlns="http://www.w3.org/2000/svg" width="17" height="17" x="119" y="924" fill-rule="evenodd" stroke-linejoin="round" stroke-miterlimit="1.414" clip-rule="evenodd"><path fill="none" d="M0 0h17v17H0z"/><clipPath id="a"><path d="M0 0h17v17H0z"/></clipPath><g fill="#71777e" fill-rule="nonzero" clip-path="url(#a)"><path d="M16.5 3.8S15 3.9 14.8 5c0 0-.9 1.5-1.6 1.2 0 0-1.3-.2-1.7-1.8 0 0-.6-1.8-.7-1.9 0 0-1.2-2.4-1.5-2.4 0 0-.4-.3-.5-.1 0 0-.4.2-.3.5L9.6 3s.4 1.3.5 1.4c0 0 0 .2-.1.3 0 0-.2.3-.4-.1 0 0-2.6-4.2-2.7-4 0 0-.4-.2-.7 0 0 0-.5.4-.2.7 0 0 2.2 3.8 2.4 3.9 0 0 .2.3-.1.2 0 0-.2 0-.6-.5l-.8-.8S5.2 2.1 5 2.2c0 0-.4-.2-.6.1 0 0-.4.4-.1.7 0 0 1.8 2.1 2 2.2 0 0 1.4 1.4 1.4 1.5 0 0 0 .3-.1.3 0 0-.5-.1-1.1-.5 0 0-1.9-1.4-2-1.5 0 0-.5-.3-.7.1 0 0-.3.4.1.7 0 0 1.9 1.6 2.3 1.8 0 0 1 .8 1.2.9 0 0 .3.3.3.4 0 0 .1.1.2.3.8.7 1.5.5 1.6.5h.1c.1-.1.2-.6.2-1-.3-1.2.6-2.2 1.2-2.6v-.3h.1c1.1-.2 1.5.4 1.6.7v.2l-.2 1.2c0 .2.1 1 .2 1.6.1.3.2.6.2.8 0 .1.1.4.1.7.2-.2.5-.4.7-.6 0 0 1.6-2.5 1.6-2.6 0 0 .2-.4.2-.8 0 0 .6-1.5.8-1.8l.7-.8s.1-.4-.5-.6z"/><path d="M12.2 13.5s.2-3 0-3.1c0 0 0-.4-.2-.8 0 0-.3-1.6-.2-2l.2-1s-.1-.3-.7-.2c0 0-1.2.8-.8 1.8 0 0 0 1.7-.8 1.8 0 0-1.3.5-2.4-.7 0 0-1.4-1.2-1.5-1.3 0 0-2.3-1.4-2.5-1.3 0 0-.5 0-.5.2 0 0-.2.4 0 .6L5 9.1s1 .9 1.1 1c0 0 .1.2.1.3 0 0-.1.4-.4.1 0 0-4.4-2.3-4.3-2.1 0 0-.4 0-.6.3 0 0-.2.6.2.7 0 0 3.8 2.2 4 2.2 0 0 .3.1 0 .2 0 0-.2.1-.8-.1 0 0-.7-.2-1.1-.3 0 0-2.5-.8-2.6-.7 0 0-.4 0-.5.4 0 0-.1.5.3.6 0 0 2.6.8 2.8.9 0 0 1.9.4 2 .6 0 0 .1.2 0 .3 0 0-.5.1-1.2.1 0 0-2.3-.2-2.5-.2 0 0-.6 0-.5.4 0 0 0 .5.4.5 0 0 2.5.4 2.9.4 0 0 1.3.2 1.5.2 0 0 .4.1.4.2 0 0 1.5 1.1 2.1 1.1 0 0 .4.1.9.3.9.3 2.7-1.2 3-3"/></g></svg>