<?xml version="1.0" encoding="utf-8"?>
<!-- Generator: Adobe Illustrator 26.5.0, SVG Export Plug-In . SVG Version: 6.00 Build 0)  -->
<svg version="1.0" id="katman_1" xmlns="http://www.w3.org/2000/svg" xmlns:xlink="http://www.w3.org/1999/xlink" x="0px" y="0px"
	 viewBox="0 0 1190.55 841.89" style="enable-background:new 0 0 1190.55 841.89;" xml:space="preserve">
<style type="text/css">
	.st0{fill-rule:evenodd;clip-rule:evenodd;}
</style>
<path class="st0" d="M984.88,328.2c1.92-1.83,5.04-1.83,6.97,0l11.32,10.85c1.53,1.47,4.09,1.35,5.61-0.11l1.43-1.37
	c1.52-1.47,1.52-3.86,0-5.31l-0.7-0.67l-10.62-10.14c-5.85-5.61-15.31-5.67-21.15-0.08l-1.87,1.78c-5.87,5.62-5.8,14.67,0.07,20.25
	l11.38,10.85c1.51,1.48,3.96,1.42,5.5-0.04l1.42-1.39c1.54-1.46,1.61-3.84,0.07-5.32l-11.34-10.84c-1.91-1.83-1.87-4.85,0.03-6.69
	L984.88,328.2z M1043.51,330.09c1.9,1.82,1.9,4.79,0,6.62l-11.37,10.85c-1.52,1.45-1.41,3.89,0.11,5.34l1.45,1.39
	c1.54,1.45,4.01,1.45,5.54,0l0.7-0.67l10.64-10.15c5.84-5.59,5.91-14.64,0.04-20.25l-1.86-1.78c-5.86-5.59-15.31-5.53-21.17,0.06
	l-11.36,10.9c-1.52,1.45-1.46,3.77,0.06,5.25l1.43,1.37c1.52,1.46,4.03,1.54,5.57,0.06l11.35-10.83c1.9-1.84,5.07-1.8,6.98,0.02
	L1043.51,330.09z M982.96,377.73c-1.93,1.83-1.93,4.82,0,6.64l1.86,1.8c1.9,1.82,5.07,1.86,6.97,0.04l11.35-10.85
	c1.54-1.46,4.04-1.39,5.58,0.06l1.43,1.39c1.55,1.46,1.58,3.8,0.06,5.25l-11.37,10.87c-5.86,5.62-15.31,5.67-21.18,0.07l-1.87-1.78
	c-5.84-5.59-5.78-14.64,0.08-20.22l10.61-10.15l0.7-0.67c1.52-1.46,4.04-1.46,5.56,0l1.44,1.39c1.52,1.45,1.66,3.88,0.13,5.35
	L982.96,377.73z M1041.54,386.12c-1.9,1.83-5.03,1.83-6.94,0l-11.36-10.85c-1.54-1.47-4.08-1.35-5.6,0.1l-1.43,1.38
	c-1.54,1.47-1.54,3.86,0,5.31l0.69,0.66l10.63,10.15c5.84,5.61,15.31,5.67,21.19,0.06l1.84-1.75c5.85-5.61,5.8-14.66-0.08-20.24
	l-11.37-10.88c-1.53-1.46-3.96-1.4-5.5,0.06l-1.43,1.37c-1.54,1.48-1.62,3.86-0.08,5.33l11.35,10.85c1.92,1.83,1.89,4.83-0.03,6.69
	L1041.54,386.12z M258.04,452.02c0-13.95-5.54-26.68-14.6-36.31c8.83-9.58,14.2-22.12,14.2-35.84v-9.12h-0.13
	c-0.38-2.11-2.3-3.74-4.64-3.74h-28.23c-2.33,0-4.24,1.63-4.63,3.74l-0.6,9.12c0,9.77-8.33,17.75-18.6,17.75v0.11h-9.55
	c-6.58,0-12.89,1.1-18.78,3.07v-79.08c0-2.46-2.1-4.5-4.72-4.5h-28.24c-2.6,0-4.7,2.03-4.7,4.5v167.55c0,2.48,2.1,4.51,4.7,4.51
	h28.24c2.61,0,4.72-2.03,4.72-4.51v-37.24h0.2c0-9.8,8.33-17.77,18.59-17.77h9.97c10.24,0,18.59,7.97,18.59,17.77v9.09h0.11v28.15
	c0,2.48,2.11,4.51,4.7,4.51h28.23c2.63,0,4.71-2.03,4.71-4.51l0.46-28.15V452.02z M394.43,397.72c2.59,0,4.73,2.04,4.73,4.51
	l0.01,67.43c0,29.94-25.13,54.3-56.47,54.3h-9.98c-31.3,0-56.4-24.35-56.4-54.3l0.07-67.43c0-2.47,2.1-4.51,4.7-4.51h28.24
	c2.57,0,4.72,2.04,4.72,4.51l0.08,67.43c0,9.8,8.36,17.78,18.59,17.78h9.98c10.27,0,18.81-7.97,18.81-17.78v-67.43
	c0-2.47,2.1-4.51,4.7-4.51H394.43z M418.25,490.23c0,2.47,2.12,4.51,4.7,4.51h28.25c2.59,0,4.73-2.04,4.73-4.51l-0.02-67.45
	c0-9.78,8.52-17.75,18.78-17.75h9.96c10.27,0,18.6,7.97,18.6,17.75l0.11,67.45c0,2.47,2.12,4.51,4.7,4.51h28.25
	c2.59,0,4.72-2.04,4.72-4.51l0.07-67.45c0-29.92-25.12-54.3-56.44-54.3h-9.96c-31.32,0-56.47,24.37-56.47,54.3L418.25,490.23z
	 M678.32,397.72c2.6,0,4.72,2.04,4.72,4.51l0.02,67.43c0,29.94-25.15,54.3-56.46,54.3h-9.98c-31.34,0-56.42-24.35-56.42-54.3
	l0.05-67.43c0-2.47,2.13-4.51,4.7-4.51h28.28c2.58,0,4.68,2.04,4.68,4.51l0.12,67.43c0,9.8,8.32,17.78,18.59,17.78h9.98
	c10.24,0,18.76-7.97,18.76-17.78v-67.43c0-2.47,2.12-4.51,4.7-4.51H678.32z M966.92,402.23c0-2.47-2.11-4.51-4.7-4.51h-28.25
	c-2.57,0-4.72,2.03-4.72,4.51v67.43c0,9.8-8.52,17.78-18.76,17.78h-9.99c-10.26,0-18.58-7.97-18.58-17.78l-0.11-67.43
	c0-2.47-2.11-4.51-4.71-4.51h-28.24c-2.57,0-4.72,2.03-4.72,4.51l-0.07,67.43c0,29.94,25.1,54.3,56.43,54.3h9.99
	c31.31,0,56.46-24.35,56.46-54.3L966.92,402.23z M706.87,493.78c-2.58,0-4.7-2.01-4.7-4.5l-0.02-67.44
	c0-29.94,25.14-54.29,56.45-54.29h9.99c31.34,0,56.43,24.35,56.43,54.29l-0.06,67.44c0,2.49-2.14,4.5-4.72,4.5H792
	c-2.61,0-4.71-2.01-4.71-4.5l-0.12-67.44c0-9.79-8.32-17.77-18.59-17.77h-9.99c-10.23,0-18.76,7.98-18.76,17.77v67.44
	c0,2.49-2.13,4.5-4.71,4.5H706.87z"/>
</svg>
