<?xml version="1.0" standalone="yes"?>
<svg xmlns="http://www.w3.org/2000/svg" width="362" height="362">
<path style="fill:#010101; stroke:none;" d="M0 0L0 162L1 162C1.14814 144.105 7.70622 125.264 14.7191 109C38.5166 53.811 99.0163 1.5213 162 1C149.593 -4.20633 127.515 0 114 0L0 0z"/>
<path style="fill:#99c713; stroke:none;" d="M162 0.424377C133.565 4.20364 106.084 12.6907 82 28.6674C60.967 42.6204 43.3427 59.9839 29.3333 81C17.7431 98.3871 9.66576 117.749 4.62654 138C-26.132 261.606 82.343 377.51 207 360.718C232.241 357.317 257.727 347.997 279 333.997C305.832 316.338 328.032 292.693 342.741 264C383.238 184.998 358.781 83.8156 286 32.7207C267.819 19.9571 247.566 10.5431 226 5.12656C205.722 0.0334167 182.856 -2.34753 162 0.424377z"/>
<path style="fill:#010101; stroke:none;" d="M200 0L200 1C264.35 1.53262 326.231 55.9064 349 113C355.068 128.217 360.863 145.464 361 162L362 162L362 0L200 0z"/>
<path style="fill:#01ff01; stroke:none;" d="M106 15L107 16L106 15z"/>
<path style="fill:#b6d654; stroke:none;" d="M255 15L256 16L255 15M244 65L244 66L249 66L244 65M292 65L292 66L295 66L292 65M240.667 66.3333L241.333 66.6667L240.667 66.3333z"/>
<path style="fill:#fefefd; stroke:none;" d="M242 66.5579C227.214 70.4329 228.94 85.0641 237.171 93.9854C239.889 96.9321 245.212 102.917 249.852 101.339C260.337 97.7733 237.653 84.3358 242.427 78.1528C249.554 68.9225 257.149 90.9345 265.756 85.8055C270.711 82.8529 265.568 77.574 262.985 75.0895C257.193 69.5202 250.472 64.3377 242 66.5579z"/>
<path style="fill:#b6d654; stroke:none;" d="M251 66L252 67L251 66M289 66L290 67L289 66z"/>
<path style="fill:#fefefd; stroke:none;" d="M290 66.6497C283.899 68.4583 276.952 74.5826 273.758 79.9992C271.883 83.1776 272.667 87.4959 277.029 87.6235C283.817 87.822 288.457 72.843 295.876 77.6582C303.852 82.8353 291.237 90.7171 288.608 95C286.712 98.0893 287.438 102.99 292.019 102.534C313.191 100.428 313.329 59.7343 290 66.6497z"/>
<path style="fill:#b6d654; stroke:none;" d="M297 66L298 67L297 66M238 67L239 68L238 67M253 67L254 68L253 67M287 67L288 68L287 67M299 67L300 68L299 67M237 68L238 69L237 68M255 68L256 69L255 68M285 68L286 69L285 68M301 68L302 69L301 68M235 69L236 70L235 69M256 69L257 70L256 69M284 69L285 70L284 69M302 69L303 70L302 69M234 70L235 71L234 70M257 70L258 71L257 70M233 71L234 72L233 71M258 71L259 72L258 71M281 71L282 72L281 71M280 72L281 73L280 72M232 73L233 74L232 73M279 73L280 74L279 73M306 73L307 74L306 73M262 74L263 75L262 74M278 74L279 75L278 74M231 75L232 76L231 75M244 75L245 76L244 75M248 75L249 76L248 75M263 75L264 76L263 75M277 75L278 76L277 75M307 75L308 76L307 75M243 76L244 77L243 76M264 76L265 77L264 76M276 76L277 77L276 76M291 76L292 77L291 76M295 76L296 77L295 76M230 77L231 78L230 77M265 77L266 78L265 77M275 77L276 78L275 77M308.333 77.6667L308.667 78.3333L308.333 77.6667M77 78L77 79L91 79L77 78M241 78L242 79L241 78M266 78L267 79L266 78M274 78L275 79L274 78M288 78L289 79L288 78M69 79L70 80L69 79z"/>
<path style="fill:#fefefd; stroke:none;" d="M112 185L112 113C112 104.634 114.647 90.8427 111.258 83.1335C109.49 79.1129 104.771 79.0504 101 79.0038C91.7895 78.8901 75.346 75.9402 67.1481 80.5725C62.1856 83.3767 64 92.2018 64 97L64 147L64 263C64 272.722 63 282.296 63 292C63 295.559 62.1315 300.641 64.6034 303.581C70.2351 310.28 96.0314 308.32 103.995 306.656C113.694 304.63 111 290.335 111 283C111 263.868 105.283 234.4 131 230.145C135.939 229.328 140.99 228.636 146 229.174C174.514 232.235 170 264.095 170 285C170 289.873 168.639 297.268 170.742 301.772C172.396 305.311 176.703 304.982 180 304.999C188.263 305.043 207.759 308.592 214.682 303.972C219.279 300.905 218 285.116 218 280C218.001 264.239 219.861 247.274 215.279 232C213.034 224.519 202.148 212.933 202.327 206C202.515 198.755 212.941 187.792 215.279 180C217.875 171.346 218.046 162.951 217.999 154C217.982 150.736 218.331 146.208 214.772 144.603C206.652 140.943 190.892 143.982 182 144C178.457 144.007 174.355 143.614 172.318 147.148C165.923 158.243 173.773 170.032 159.996 178.867C146.821 187.315 126.831 182.247 112 185z"/>
<path style="fill:#b6d654; stroke:none;" d="M107.667 79.3333L108.333 79.6667L107.667 79.3333M240 79L240 82L241 82L240 79M267 79L268 80L267 79M273 79L274 80L273 79M287 79L288 80L287 79M298 79L299 80L298 79M66 80L67 81L66 80M286 80L287 81L286 80M64 81L65 82L64 81M229.333 81.6667L229.667 82.3333L229.333 81.6667M268 81L269 82L268 81M272 81L273 82L272 81M285 81L286 82L285 81M299.333 81.6667L299.667 82.3333L299.333 81.6667M63 82L63 280L64 280L64 141L64 101L63 82M111 82L112 83L111 82M284 82L285 83L284 82M241 83L242 84L241 83M268 83L269 84L268 83M283 83L284 84L283 83M242 84L243 85L242 84M282 84L283 85L282 84M298 84L299 85L298 84M308.333 84.6667L308.667 85.3333L308.333 84.6667M230 85L231 86L230 85M243 85L244 86L243 85M272 85L273 86L272 85M297 85L298 86L297 85M244 86L245 87L244 86M260 86L261 87L260 86M265 86L266 87L265 86M231 87L232 88L231 87M245 87L246 88L245 87M262.667 87.3333L263.333 87.6667L262.667 87.3333M274 87L275 88L274 87M232 88L233 89L232 88M246 88L247 89L246 88M276 88L276 89L279 89L276 88M307 88L308 89L307 88M233 89L234 90L233 89M247 89L248 90L247 89M234 90L235 91L234 90M248 90L249 91L248 90M249 91L250 92L249 91M305 91L306 92L305 91M250 92L251 93L250 92M290 92L291 93L290 92M304 92L305 93L304 92M251 93L252 94L251 93M289 93L290 94L289 93M303 93L304 94L303 93M237 94L238 95L237 94M252 94L253 95L252 94M288 94L289 95L288 94M302 94L303 95L302 94M238 95L239 96L238 95M301 95L302 96L301 95M239 96L240 97L239 96M253 96L253 99L254 99L253 96M300 96L301 97L300 96M299 97L300 98L299 97M286.333 98.6667L286.667 99.3333L286.333 98.6667M298 98L299 99L298 98M243 99L244 100L243 99M297 99L298 100L297 99M244 100L245 101L244 100M296 100L297 101L296 100M245 101L246 102L245 101M287 101L288 102L287 101M295 101L296 102L295 101M247 102L247 103L250 103L247 102M288 102L289 103L288 102M294 102L295 103L294 102M290 103L290 104L293 104L290 103M247.667 106.333L248.333 106.667L247.667 106.333M290.667 106.333L291.333 106.667L290.667 106.333M346 106L347 107L346 106M245 107L246 108L245 107z"/>
<path style="fill:#fefefd; stroke:none;" d="M245.995 107.801C238.614 110.02 229.585 121.178 230.12 129C230.729 137.893 239.99 146.236 249 143.029C255.028 140.884 262.149 134.479 265.377 129C267.116 126.05 266.067 121.654 261.981 121.752C255.101 121.916 251.124 135.249 244.02 132.673C233.266 128.773 248.944 118.37 250.953 114.001C252.624 110.368 250.095 106.569 245.995 107.801M289.244 108.086C279.917 112.981 301.042 123.798 298.029 129.89C291.982 142.122 280.939 117.013 273.337 123.608C269.389 127.034 274.601 131.554 277.005 134C282.846 139.946 290.099 146.669 299 142.427C311.909 136.276 309.275 123.378 300.996 115C298.458 112.431 293.549 105.827 289.244 108.086z"/>
<path style="fill:#b6d654; stroke:none;" d="M293 107L294 108L293 107M251 108L252 109L251 108M287 108L288 109L287 108M294 108L295 109L294 108M295 109L296 110L295 109M252 110L252 114L253 114L252 110M286 110L287 111L286 110M296 110L297 111L296 110M297 111L298 112L297 111M286.333 112.667L286.667 113.333L286.333 112.667M298 112L299 113L298 112M299 113L300 114L299 113M251 114L252 115L251 114M287 114L288 115L287 114M300 114L301 115L300 114M250 115L251 116L250 115M288 115L289 116L288 115M301 115L302 116L301 115M249 116L250 117L249 116M302 116L303 117L302 116M248 117L249 118L248 117M303 117L304 118L303 117M233 118L234 119L233 118M247 118L248 119L247 118M304 118L305 119L304 118M246 119L247 120L246 119M305 119L306 120L305 119M245 120L246 121L245 120M306 120L307 121L306 120M231 121L232 122L231 121M244 121L245 122L244 121M260 121L261 122L260 121M264 121L265 122L264 121M275 121L275 122L278 122L275 121M294 121L295 122L294 121M243 122L244 123L243 122M258 122L259 123L258 122M265 122L266 123L265 122M295 122L296 123L295 122M307 122L308 123L307 122M230 123L231 124L230 123M242 123L243 124L242 123M257 123L258 124L257 123M272 123L273 124L272 123M296 123L297 124L296 123M271 124L272 125L271 124M281 124L282 125L281 124M297 124L298 125L297 124M308 124L308 127L309 127L308 124M240 125L241 126L240 125M267.333 125.667L267.667 126.333L267.333 125.667M282 125L283 126L282 125M298 125L299 126L298 125M229 126L229 129L230 129L229 126M239 126L240 127L239 126M283 126L284 127L283 126M284 127L285 128L284 127M299.333 127.667L299.667 128.333L299.333 127.667M266 128L267 129L266 128M271 128L272 129L271 128M285 128L286 129L285 128M239 129L240 130L239 129M251 129L252 130L251 129M265 129L266 130L265 129M272 129L273 130L272 129M286 129L287 130L286 129M308 129L308 132L309 132L308 129M240 130L241 131L240 130M250 130L251 131L250 130M264 130L265 131L264 130M273 130L274 131L273 130M287 130L288 131L287 130M298 130L299 131L298 130M241 131L242 132L241 131M249 131L250 132L249 131M263 131L264 132L263 131M274 131L275 132L274 131M288 131L289 132L288 131M297 131L298 132L297 131M230 132L231 133L230 132M242 132L243 133L242 132M248 132L249 133L248 132M262 132L263 133L262 132M275 132L276 133L275 132M296 132L297 133L296 132M244 133L244 134L248 134L244 133M261 133L262 134L261 133M276 133L277 134L276 133M291 133L291 134L295 134L291 133M307.333 133.667L307.667 134.333L307.333 133.667M231 134L232 135L231 134M260 134L261 135L260 134M277 134L278 135L277 134M259 135L260 136L259 135M278 135L279 136L278 135M232 136L233 137L232 136M258 136L259 137L258 136M279 136L280 137L279 136M306 136L307 137L306 136M257 137L258 138L257 137M280 137L281 138L280 137M305 137L306 138L305 137M256 138L257 139L256 138M281 138L282 139L281 138M304 138L305 139L304 138M234 139L235 140L234 139M255 139L256 140L255 139M282 139L283 140L282 139M303 139L304 140L303 139M254 140L255 141L254 140M283 140L284 141L283 140M302 140L303 141L302 140M237 141L238 142L237 141M252 141L253 142L252 141M239 142L240 143L239 142M250 142L251 143L250 142M286 142L287 143L286 142M299 142L300 143L299 142M175 143L175 144L215 144C204.488 139.589 186.434 143 175 143M241 143L242 144L241 143M248 143L249 144L248 143M289.667 143.333L290.333 143.667L289.667 143.333M296.667 143.333L297.333 143.667L296.667 143.333M173 144L174 145L173 144M244 144L244 145L247 145L244 144M292.667 144.333L293.333 144.667L292.667 144.333M217 146L218 147L217 146M171.333 147.667L171.667 148.333L171.333 147.667M218 149L218 166L219 166L218 149M170 153L170 164L171 164L170 153M169.333 166.667L169.667 167.333L169.333 166.667M168 169L169 170L168 169M217 170L217 173L218 173L217 170M167 171L168 172L167 171M165 174L166 175L165 174M164 175L165 176L164 175M216.333 175.667L216.667 176.333L216.333 175.667M163 176L164 177L163 176M162 177L163 178L162 177M159 179L160 180L159 179M215.333 179.667L215.667 180.333L215.333 179.667M157 180L158 181L157 180M153.667 181.333L154.333 181.667L153.667 181.333M142 182L142 183L151 183L142 182M214.333 182.667L214.667 183.333L214.333 182.667M124 183L124 184L133 184L124 183M112 184L112 185L115 185L112 184M213 185L214 186L213 185M212.333 187.667L212.667 188.333L212.333 187.667M211 190L212 191L211 190M210 192L211 193L210 192M209 193L210 194L209 193M208 195L209 196L208 195M207 197L208 198L207 197M206 198L207 199L206 198z"/>
<path style="fill:#010101; stroke:none;" d="M0 200L0 362L162 362L162 361C101.188 360.497 42.545 311.232 17.2585 259C11.2842 246.659 7.04014 233.315 3.88426 220C2.37415 213.629 2.51667 205.942 0 200M361 200C360.863 216.536 355.068 233.783 349 249C326.231 306.094 264.35 360.467 200 361L200 362L362 362L362 248C362 234.485 366.206 212.407 361 200z"/>
<path style="fill:#b6d654; stroke:none;" d="M204 201L205 202L204 201M203 202L204 203L203 202M202 203L203 204L202 203M201 207L202 208L201 207M202 208L203 209L202 208M203 209L204 210L203 209M204 210L205 211L204 210M205 212L206 213L205 212M206 213L207 214L206 213M208 216L209 217L208 216M209 218L210 219L209 218M210 220L211 221L210 220M211 222L212 223L211 222M212 224L213 225L212 224M213 226L214 227L213 226M135 229L135 230L149 230L135 229M214 229L215 230L214 229M128.667 230.333L129.333 230.667L128.667 230.333M151.667 230.333L152.333 230.667L151.667 230.333M125 231L126 232L125 231M155 231L156 232L155 231M122 232L123 233L122 232M157 232L158 233L157 232M215 232L216 233L215 232M159 233L160 234L159 233M119 234L120 235L119 234M160 234L161 235L160 234M118 235L119 236L118 235M161 235L162 236L161 235M216.333 235.667L216.667 236.333L216.333 235.667M117 236L118 237L117 236M116 237L117 238L116 237M163 237L164 238L163 237M115 238L116 239L115 238M164 238L165 239L164 238M114 239L115 240L114 239M165 239L166 240L165 239M217 240L217 243L218 243L217 240M113 241L114 242L113 241M166 241L167 242L166 241M112 243L113 244L112 243M167.333 243.667L167.667 244.333L167.333 243.667M111.333 246.667L111.667 247.333L111.333 246.667M168 246L168 249L169 249L168 246M218 248L218 265L219 265L218 248M15 255L16 256L15 255M169 255L169 270L170 270L169 255M346 255L347 256L346 255M217 290L217 302L218 302L217 290M110 300L110 303L111 303L110 300M170 302L171 303L170 302M63 303L64 304L63 303M216 303L217 304L216 303M109 304L110 305L109 304M172 304L173 305L172 304M215 304L216 305L215 304M66 305L67 306L66 305M108 305L109 306L108 305M174 305L174 306L213 306C202.726 301.689 185.172 305 174 305M68.6667 306.333L69.3333 306.667L68.6667 306.333M105.667 306.333L106.333 306.667L105.667 306.333M106 346L107 347L106 346M255 346L256 347L255 346z"/>
</svg>
