<?xml version="1.0" encoding="iso-8859-1"?>
<!-- Generator: Adobe Illustrator 15.1.0, SVG Export Plug-In . SVG Version: 6.00 Build 0)  -->
<!DOCTYPE svg PUBLIC "-//W3C//DTD SVG 1.1//EN" "http://www.w3.org/Graphics/SVG/1.1/DTD/svg11.dtd">
<svg version="1.1" id="Ebene_1" xmlns="http://www.w3.org/2000/svg" xmlns:xlink="http://www.w3.org/1999/xlink" x="0px" y="0px"
	 width="240px" height="135px" viewBox="0 0 240 135" style="enable-background:new 0 0 240 135;" xml:space="preserve">
<g>
	<g id="Background">
		<rect x="-0.022" y="0.23" style="fill:#FFFFFF;" width="240" height="134.919"/>
	</g>
	<g id="Name" transform="scale(1,-1) translate(0,-104)">
		<path d="M87.867,72.786c0-0.371-0.046-0.695-0.139-0.973c-0.093-0.277-0.219-0.516-0.379-0.718c-0.16-0.2-0.344-0.362-0.555-0.486
			c-0.211-0.123-0.431-0.216-0.656-0.277V70.3c0.278-0.051,0.538-0.148,0.78-0.293c0.242-0.145,0.453-0.324,0.632-0.541
			c0.181-0.216,0.324-0.471,0.433-0.764c0.107-0.294,0.161-0.615,0.161-0.966c0-0.421-0.071-0.808-0.216-1.157
			c-0.144-0.35-0.368-0.654-0.672-0.911c-0.303-0.257-0.686-0.458-1.149-0.603c-0.463-0.144-1.014-0.216-1.652-0.216h-2.177v10.652
			h2.053c0.628,0,1.166-0.064,1.614-0.192c0.447-0.13,0.814-0.312,1.103-0.549c0.289-0.236,0.497-0.522,0.625-0.857
			C87.803,73.571,87.867,73.198,87.867,72.786z M86.508,72.74c0,0.494-0.175,0.9-0.525,1.219c-0.35,0.319-0.9,0.479-1.652,0.479
			h-0.71v-3.674h0.694c0.72,0,1.266,0.175,1.637,0.526C86.323,71.638,86.508,72.122,86.508,72.74z M86.708,67.831
			c0,0.577-0.188,1.031-0.563,1.366c-0.376,0.334-0.914,0.502-1.614,0.502h-0.91v-3.737h0.833c0.793,0,1.367,0.157,1.721,0.471
			C86.532,66.748,86.708,67.213,86.708,67.831z M94.984,64.851h-1.143v0.833h-0.03c-0.031-0.061-0.099-0.152-0.201-0.27
			c-0.103-0.118-0.235-0.232-0.394-0.339c-0.159-0.108-0.352-0.204-0.579-0.287c-0.227-0.082-0.478-0.122-0.757-0.122
			c-0.329,0-0.625,0.049-0.888,0.146c-0.262,0.098-0.486,0.254-0.671,0.471c-0.185,0.217-0.327,0.497-0.425,0.842
			c-0.098,0.345-0.146,0.769-0.146,1.273v4.864H91v-4.771c0-0.617,0.101-1.057,0.301-1.319c0.201-0.263,0.512-0.394,0.934-0.394
			c0.36,0,0.664,0.09,0.911,0.271c0.247,0.18,0.442,0.357,0.586,0.532v5.682h1.25V64.851z M100.942,64.851v4.771
			c0,0.627-0.105,1.078-0.315,1.35c-0.211,0.273-0.532,0.41-0.965,0.41c-0.371,0-0.679-0.092-0.927-0.279
			c-0.247-0.185-0.443-0.365-0.586-0.54v-5.712h-1.25v7.411h1.142v-0.834h0.032c0.031,0.062,0.097,0.152,0.2,0.271
			c0.104,0.119,0.237,0.231,0.402,0.34c0.165,0.108,0.36,0.204,0.587,0.286c0.226,0.083,0.483,0.124,0.771,0.124
			c0.329,0,0.629-0.049,0.896-0.147c0.268-0.097,0.495-0.255,0.679-0.471c0.185-0.216,0.33-0.496,0.432-0.841
			c0.104-0.346,0.155-0.77,0.155-1.274v-4.863H100.942z M103.722,68.448c0,0.751,0.097,1.38,0.293,1.884s0.448,0.911,0.756,1.219
			c0.31,0.31,0.659,0.528,1.049,0.657c0.392,0.128,0.783,0.192,1.174,0.192c0.237,0,0.442-0.018,0.618-0.054
			c0.175-0.036,0.319-0.079,0.432-0.13v3.55l1.25,0.14V64.851h-1.143v0.787h-0.03c-0.031-0.062-0.087-0.146-0.169-0.255
			c-0.083-0.107-0.196-0.215-0.34-0.324c-0.145-0.108-0.324-0.201-0.541-0.277c-0.216-0.077-0.468-0.115-0.756-0.115
			c-0.35,0-0.682,0.069-0.996,0.208c-0.313,0.139-0.589,0.36-0.826,0.665c-0.236,0.303-0.424,0.693-0.563,1.172
			C103.791,67.189,103.722,67.769,103.722,68.448z M106.654,65.777c0.196,0,0.371,0.026,0.526,0.077
			c0.155,0.051,0.288,0.115,0.401,0.193c0.114,0.077,0.209,0.156,0.286,0.238c0.078,0.083,0.136,0.155,0.178,0.217v4.569
			c-0.113,0.072-0.244,0.133-0.394,0.184c-0.149,0.053-0.337,0.079-0.563,0.079c-0.288,0-0.558-0.049-0.811-0.147
			c-0.252-0.098-0.471-0.26-0.656-0.485c-0.186-0.227-0.332-0.521-0.44-0.88c-0.108-0.361-0.162-0.804-0.162-1.328
			c0-0.515,0.043-0.944,0.131-1.29s0.208-0.622,0.363-0.833c0.155-0.211,0.33-0.363,0.525-0.456
			C106.232,65.824,106.438,65.777,106.654,65.777z M115.963,69.76c0-0.319-0.01-0.594-0.03-0.826
			c-0.021-0.231-0.041-0.434-0.062-0.609h-3.782c0.041-0.875,0.229-1.519,0.563-1.93c0.334-0.412,0.815-0.617,1.443-0.617
			c0.217,0,0.412,0.026,0.587,0.077c0.175,0.051,0.327,0.113,0.456,0.186c0.128,0.072,0.236,0.144,0.323,0.216
			c0.087,0.071,0.152,0.129,0.193,0.17l0.463-0.88c-0.051-0.053-0.128-0.126-0.232-0.225c-0.102-0.097-0.241-0.195-0.417-0.293
			c-0.175-0.097-0.391-0.183-0.647-0.254c-0.258-0.072-0.561-0.107-0.912-0.107c-0.463,0-0.882,0.077-1.258,0.23
			c-0.375,0.154-0.695,0.395-0.957,0.718c-0.263,0.324-0.466,0.735-0.61,1.234c-0.145,0.5-0.216,1.099-0.216,1.799
			c0,0.659,0.074,1.227,0.223,1.705c0.15,0.479,0.353,0.872,0.61,1.182c0.257,0.309,0.556,0.538,0.895,0.687
			c0.341,0.149,0.705,0.224,1.097,0.224c0.71,0,1.265-0.224,1.667-0.671C115.763,71.328,115.963,70.656,115.963,69.76z
			 M113.617,71.427c-0.442,0-0.797-0.185-1.064-0.555s-0.422-0.905-0.463-1.605h2.701c0.01,0.052,0.019,0.126,0.023,0.224
			c0.006,0.098,0.008,0.203,0.008,0.316c0,0.515-0.104,0.914-0.31,1.197C114.307,71.287,114.008,71.427,113.617,71.427z
			 M120.826,70.764c-0.082,0.093-0.23,0.22-0.447,0.378c-0.216,0.16-0.499,0.24-0.849,0.24c-0.329,0-0.581-0.078-0.756-0.232
			c-0.174-0.153-0.262-0.34-0.262-0.556c0-0.278,0.08-0.507,0.239-0.687c0.16-0.181,0.404-0.373,0.734-0.579l0.462-0.279
			c0.505-0.298,0.9-0.62,1.19-0.965c0.289-0.345,0.432-0.79,0.432-1.335c0-0.586-0.204-1.081-0.609-1.482
			c-0.407-0.402-0.992-0.602-1.753-0.602c-0.298,0-0.561,0.03-0.788,0.092c-0.226,0.062-0.424,0.133-0.594,0.216
			c-0.17,0.083-0.311,0.172-0.425,0.27c-0.113,0.098-0.206,0.188-0.278,0.27l0.603,0.989c0.062-0.062,0.136-0.134,0.223-0.217
			c0.088-0.082,0.193-0.161,0.317-0.238c0.124-0.078,0.262-0.143,0.417-0.193c0.154-0.051,0.334-0.077,0.541-0.077
			c0.37,0,0.653,0.082,0.849,0.247c0.195,0.165,0.293,0.366,0.293,0.603c0,0.175-0.023,0.328-0.07,0.456
			c-0.046,0.128-0.115,0.245-0.208,0.347c-0.093,0.103-0.206,0.201-0.339,0.293c-0.134,0.093-0.288,0.196-0.463,0.309l-0.463,0.294
			c-0.463,0.298-0.826,0.612-1.088,0.942c-0.262,0.329-0.394,0.751-0.394,1.266c0,0.277,0.054,0.532,0.162,0.764
			c0.107,0.23,0.26,0.432,0.455,0.602c0.195,0.169,0.425,0.304,0.688,0.401c0.262,0.098,0.543,0.147,0.841,0.147
			c0.288,0,0.536-0.029,0.741-0.085c0.206-0.057,0.383-0.128,0.533-0.216c0.149-0.088,0.271-0.175,0.37-0.262
			c0.098-0.088,0.178-0.163,0.238-0.224L120.826,70.764z M127.913,72.262l-2.284-7.411H124.5l-2.3,7.411h1.344l1.081-4.091
			c0.112-0.412,0.21-0.792,0.294-1.143c0.081-0.35,0.133-0.685,0.153-1.004h0.031c0.02,0.319,0.073,0.649,0.162,0.989
			c0.086,0.34,0.188,0.72,0.301,1.142l1.143,4.107H127.913z M133.702,69.76c0-0.319-0.01-0.594-0.031-0.826
			c-0.021-0.231-0.04-0.434-0.061-0.609h-3.785c0.043-0.875,0.231-1.519,0.564-1.93c0.335-0.412,0.816-0.617,1.443-0.617
			c0.217,0,0.413,0.026,0.588,0.077c0.176,0.051,0.327,0.113,0.455,0.186c0.128,0.072,0.237,0.144,0.324,0.216
			c0.087,0.071,0.15,0.129,0.192,0.17l0.462-0.88c-0.05-0.053-0.127-0.126-0.229-0.225c-0.103-0.097-0.243-0.195-0.418-0.293
			c-0.174-0.097-0.391-0.183-0.648-0.254c-0.257-0.072-0.561-0.107-0.911-0.107c-0.463,0-0.881,0.077-1.258,0.23
			c-0.375,0.154-0.694,0.395-0.956,0.718c-0.264,0.324-0.467,0.735-0.611,1.234c-0.145,0.5-0.215,1.099-0.215,1.799
			c0,0.659,0.074,1.227,0.223,1.705c0.15,0.479,0.353,0.872,0.611,1.182c0.256,0.309,0.555,0.538,0.895,0.687
			c0.339,0.149,0.706,0.224,1.097,0.224c0.709,0,1.266-0.224,1.668-0.671C133.501,71.328,133.702,70.656,133.702,69.76z
			 M131.354,71.427c-0.441,0-0.797-0.185-1.064-0.555c-0.269-0.37-0.422-0.905-0.465-1.605h2.703
			c0.011,0.052,0.018,0.126,0.022,0.224c0.006,0.098,0.008,0.203,0.008,0.316c0,0.515-0.103,0.914-0.308,1.197
			C132.045,71.287,131.747,71.427,131.354,71.427z M138.626,71.165c-0.03,0.02-0.098,0.046-0.2,0.077
			c-0.104,0.031-0.241,0.047-0.417,0.047c-0.392,0-0.697-0.107-0.918-0.318c-0.222-0.21-0.379-0.439-0.472-0.687v-5.434h-1.249
			v7.411h1.141v-1.005h0.032c0.051,0.145,0.118,0.287,0.2,0.425c0.081,0.14,0.185,0.263,0.308,0.371
			c0.123,0.109,0.271,0.194,0.44,0.255c0.169,0.062,0.373,0.093,0.61,0.093c0.175,0,0.317-0.015,0.425-0.046
			c0.107-0.03,0.192-0.056,0.255-0.077L138.626,71.165z M148.398,72.262l-2.254-7.411h-1.111l-0.757,2.593
			c-0.113,0.371-0.208,0.716-0.286,1.035c-0.076,0.319-0.126,0.623-0.146,0.911h-0.032c-0.02-0.288-0.075-0.596-0.169-0.926
			c-0.092-0.329-0.201-0.674-0.324-1.034l-0.849-2.578h-1.064l-2.332,7.411h1.344l1.111-4.2c0.102-0.391,0.193-0.753,0.269-1.088
			c0.078-0.335,0.122-0.652,0.132-0.95h0.031c0.03,0.298,0.096,0.61,0.192,0.935c0.098,0.324,0.209,0.676,0.333,1.057l0.803,2.424
			l-0.556,1.822h1.295l1.128-4.091c0.113-0.422,0.216-0.818,0.309-1.189c0.094-0.371,0.144-0.689,0.154-0.958h0.03
			c0.022,0.268,0.073,0.589,0.154,0.966c0.085,0.375,0.181,0.769,0.295,1.181l1.096,4.091H148.398z M149.063,66.734
			c0,0.432,0.08,0.793,0.244,1.081c0.167,0.288,0.388,0.522,0.666,0.703c0.276,0.18,0.605,0.309,0.979,0.386
			c0.376,0.077,0.775,0.115,1.196,0.115h0.387v0.71c0,0.627-0.11,1.061-0.332,1.297c-0.223,0.236-0.531,0.355-0.934,0.355
			c-0.371,0-0.68-0.08-0.927-0.24c-0.247-0.158-0.443-0.301-0.587-0.424l-0.525,0.833c0.081,0.083,0.19,0.175,0.318,0.279
			c0.128,0.103,0.284,0.201,0.47,0.293c0.186,0.093,0.396,0.17,0.632,0.231c0.237,0.062,0.506,0.093,0.804,0.093
			c0.763,0,1.337-0.21,1.729-0.634c0.392-0.421,0.586-1.101,0.586-2.038v-3.381c0-0.318,0.01-0.63,0.032-0.934
			c0.021-0.304,0.041-0.507,0.063-0.61h-1.19l-0.046,0.818h-0.031c-0.039-0.093-0.102-0.199-0.184-0.317s-0.185-0.226-0.31-0.324
			c-0.124-0.097-0.272-0.183-0.447-0.254c-0.176-0.072-0.381-0.107-0.618-0.107c-0.277,0-0.536,0.051-0.78,0.154
			c-0.24,0.103-0.452,0.247-0.632,0.433c-0.18,0.185-0.32,0.403-0.416,0.656C149.11,66.161,149.063,66.437,149.063,66.734z
			 M151.301,65.731c0.174,0,0.328,0.025,0.463,0.077c0.134,0.051,0.25,0.113,0.348,0.186c0.099,0.071,0.18,0.151,0.248,0.238
			c0.066,0.087,0.124,0.162,0.177,0.225v1.636l-0.402-0.016c-0.596-0.021-1.048-0.123-1.358-0.308
			c-0.309-0.185-0.464-0.484-0.464-0.896c0-0.38,0.089-0.667,0.264-0.857C150.75,65.827,150.991,65.731,151.301,65.731z
			 M156.89,66.58c0-0.309,0.043-0.525,0.132-0.649c0.086-0.123,0.238-0.185,0.454-0.185c0.114,0,0.21,0.01,0.286,0.031
			c0.077,0.021,0.136,0.041,0.177,0.062l0.109-0.926c-0.063-0.032-0.175-0.073-0.339-0.125c-0.165-0.051-0.387-0.076-0.664-0.076
			c-0.423,0-0.763,0.128-1.019,0.386c-0.259,0.257-0.389,0.715-0.389,1.375v9.293l1.252,0.14V66.58z M162.338,71.242h-1.62v-4.106
			c0-0.525,0.065-0.882,0.201-1.073c0.135-0.189,0.359-0.285,0.679-0.285c0.186,0,0.345,0.026,0.479,0.077
			c0.135,0.051,0.232,0.098,0.294,0.14l0.169-1.004c-0.052-0.041-0.175-0.105-0.37-0.193c-0.195-0.087-0.457-0.13-0.787-0.13
			c-0.639,0-1.117,0.177-1.437,0.532c-0.319,0.355-0.479,0.945-0.479,1.769v4.275h-0.895v0.833l0.895,0.186l0.14,2.068h1.112v-2.068
			h1.774L162.338,71.242z M168.946,64.851h-1.144v0.833h-0.03c-0.031-0.061-0.097-0.152-0.2-0.27
			c-0.103-0.118-0.232-0.232-0.393-0.339c-0.16-0.108-0.354-0.204-0.58-0.287c-0.226-0.082-0.479-0.122-0.755-0.122
			c-0.329,0-0.627,0.049-0.89,0.146c-0.262,0.098-0.484,0.254-0.673,0.471c-0.185,0.217-0.325,0.497-0.422,0.842
			c-0.099,0.345-0.147,0.769-0.147,1.273v4.864h1.25v-4.771c0-0.617,0.101-1.057,0.3-1.319c0.202-0.263,0.514-0.394,0.937-0.394
			c0.359,0,0.664,0.09,0.909,0.271c0.249,0.18,0.444,0.357,0.588,0.532v5.682h1.25V64.851z M174.905,64.851v4.771
			c0,0.627-0.105,1.078-0.317,1.35c-0.209,0.273-0.532,0.41-0.963,0.41c-0.372,0-0.682-0.092-0.927-0.279
			c-0.247-0.185-0.444-0.365-0.588-0.54v-5.712h-1.249v7.411h1.143v-0.834h0.03c0.031,0.062,0.097,0.152,0.199,0.271
			c0.104,0.119,0.238,0.231,0.403,0.34c0.164,0.108,0.359,0.204,0.586,0.286c0.226,0.083,0.484,0.124,0.772,0.124
			c0.33,0,0.627-0.049,0.895-0.147c0.269-0.097,0.495-0.255,0.68-0.471c0.184-0.216,0.328-0.496,0.434-0.841
			c0.102-0.346,0.154-0.77,0.154-1.274v-4.863H174.905z M183.334,71.29h-0.926c0.237-0.392,0.354-0.834,0.354-1.329
			c0-0.391-0.063-0.744-0.192-1.057c-0.128-0.314-0.309-0.579-0.54-0.796c-0.23-0.215-0.504-0.381-0.816-0.494
			c-0.315-0.113-0.651-0.17-1.012-0.17c-0.073,0-0.14,0-0.2,0c-0.063,0-0.13,0.006-0.202,0.016
			c-0.122-0.051-0.251-0.133-0.386-0.247c-0.135-0.113-0.201-0.262-0.201-0.447c0-0.155,0.058-0.28,0.178-0.378
			s0.313-0.147,0.579-0.147h0.941c0.35,0,0.674-0.036,0.974-0.107c0.299-0.072,0.558-0.189,0.779-0.347
			c0.221-0.16,0.395-0.364,0.518-0.61c0.123-0.247,0.185-0.545,0.185-0.896c0-0.401-0.085-0.767-0.254-1.096
			c-0.171-0.33-0.41-0.613-0.718-0.849c-0.312-0.237-0.685-0.422-1.128-0.556c-0.441-0.133-0.936-0.201-1.481-0.201
			c-0.791,0-1.395,0.173-1.807,0.518s-0.618,0.842-0.618,1.49c0,0.278,0.049,0.517,0.147,0.718c0.096,0.2,0.214,0.376,0.349,0.524
			c0.133,0.15,0.269,0.269,0.407,0.355c0.139,0.088,0.25,0.157,0.332,0.208v0.031c-0.318,0.237-0.479,0.582-0.479,1.035
			c0,0.195,0.039,0.365,0.116,0.51c0.077,0.143,0.164,0.261,0.263,0.354c0.097,0.093,0.195,0.167,0.292,0.224
			c0.099,0.056,0.174,0.094,0.226,0.115v0.03c-0.382,0.176-0.687,0.451-0.92,0.827c-0.229,0.375-0.347,0.856-0.347,1.443
			c0,0.411,0.068,0.775,0.2,1.088c0.133,0.314,0.313,0.574,0.541,0.78c0.227,0.206,0.491,0.36,0.795,0.463
			c0.303,0.102,0.63,0.154,0.979,0.154c0.352,0,0.68-0.062,0.988-0.185h2.255L183.334,71.29z M179.891,65.083
			c-0.214,0-0.403,0.015-0.57,0.046c-0.094-0.052-0.183-0.113-0.271-0.185c-0.087-0.072-0.166-0.16-0.238-0.262
			c-0.072-0.104-0.131-0.224-0.178-0.363c-0.047-0.139-0.069-0.301-0.069-0.486c0-0.793,0.438-1.188,1.312-1.188
			c0.752,0,1.308,0.146,1.668,0.439c0.359,0.293,0.538,0.631,0.538,1.012c0,0.36-0.111,0.615-0.338,0.764
			c-0.226,0.15-0.529,0.225-0.91,0.225H179.891z M181.544,69.961c0,0.536-0.127,0.917-0.378,1.142
			c-0.254,0.227-0.548,0.34-0.889,0.34c-0.361,0-0.668-0.113-0.926-0.34c-0.259-0.226-0.386-0.606-0.386-1.142
			s0.127-0.916,0.386-1.143c0.258-0.226,0.555-0.339,0.895-0.339c0.362,0,0.666,0.113,0.92,0.339
			C181.417,69.045,181.544,69.425,181.544,69.961z M187.949,70.764c-0.081,0.093-0.23,0.22-0.445,0.378
			c-0.218,0.16-0.5,0.24-0.85,0.24c-0.329,0-0.583-0.078-0.757-0.232c-0.176-0.153-0.262-0.34-0.262-0.556
			c0-0.278,0.078-0.507,0.238-0.687c0.159-0.181,0.402-0.373,0.733-0.579l0.463-0.279c0.504-0.298,0.901-0.62,1.189-0.965
			c0.286-0.345,0.433-0.79,0.433-1.335c0-0.586-0.203-1.081-0.611-1.482c-0.405-0.402-0.99-0.602-1.751-0.602
			c-0.3,0-0.561,0.03-0.789,0.092c-0.225,0.062-0.424,0.133-0.593,0.216c-0.17,0.083-0.311,0.172-0.426,0.27
			c-0.113,0.098-0.204,0.188-0.278,0.27l0.604,0.989c0.061-0.062,0.137-0.134,0.224-0.217c0.088-0.082,0.193-0.161,0.316-0.238
			c0.123-0.078,0.264-0.143,0.418-0.193c0.153-0.051,0.334-0.077,0.539-0.077c0.37,0,0.654,0.082,0.849,0.247
			c0.195,0.165,0.296,0.366,0.296,0.603c0,0.175-0.024,0.328-0.073,0.456c-0.046,0.128-0.114,0.245-0.207,0.347
			c-0.093,0.103-0.205,0.201-0.34,0.293c-0.134,0.093-0.288,0.196-0.463,0.309l-0.463,0.294c-0.463,0.298-0.826,0.612-1.088,0.942
			c-0.263,0.329-0.395,0.751-0.395,1.266c0,0.277,0.054,0.532,0.162,0.764c0.109,0.23,0.26,0.432,0.454,0.602
			c0.198,0.169,0.426,0.304,0.689,0.401c0.262,0.098,0.542,0.147,0.841,0.147c0.288,0,0.535-0.029,0.74-0.085
			c0.207-0.057,0.383-0.128,0.532-0.216s0.274-0.175,0.372-0.262c0.098-0.088,0.178-0.163,0.239-0.224L187.949,70.764z
			 M189.725,66.734c0,0.432,0.084,0.793,0.248,1.081c0.166,0.288,0.385,0.522,0.664,0.703c0.277,0.18,0.604,0.309,0.98,0.386
			c0.376,0.077,0.773,0.115,1.198,0.115h0.384v0.71c0,0.627-0.11,1.061-0.331,1.297c-0.223,0.236-0.533,0.355-0.935,0.355
			c-0.371,0-0.68-0.08-0.926-0.24c-0.248-0.158-0.443-0.301-0.587-0.424l-0.526,0.833c0.084,0.083,0.188,0.175,0.316,0.279
			c0.129,0.103,0.287,0.201,0.472,0.293c0.184,0.093,0.396,0.17,0.634,0.231c0.236,0.062,0.505,0.093,0.803,0.093
			c0.761,0,1.338-0.21,1.729-0.634c0.389-0.421,0.586-1.101,0.586-2.038v-3.381c0-0.318,0.01-0.63,0.032-0.934
			c0.02-0.304,0.041-0.507,0.061-0.61h-1.189l-0.045,0.818h-0.031c-0.043-0.093-0.104-0.199-0.188-0.317
			c-0.08-0.118-0.185-0.226-0.307-0.324c-0.125-0.097-0.273-0.183-0.448-0.254c-0.174-0.072-0.381-0.107-0.617-0.107
			c-0.278,0-0.538,0.051-0.78,0.154c-0.242,0.103-0.451,0.247-0.633,0.433c-0.18,0.185-0.318,0.403-0.417,0.656
			C189.774,66.161,189.725,66.437,189.725,66.734z M191.966,65.731c0.175,0,0.328,0.025,0.461,0.077
			c0.134,0.051,0.25,0.113,0.349,0.186c0.097,0.071,0.181,0.151,0.246,0.238c0.067,0.087,0.127,0.162,0.178,0.225v1.636
			l-0.399-0.016c-0.599-0.021-1.053-0.123-1.36-0.308c-0.309-0.185-0.462-0.484-0.462-0.896c0-0.38,0.087-0.667,0.261-0.857
			C191.414,65.827,191.655,65.731,191.966,65.731z M200.208,64.851v4.771c0,0.606-0.087,1.043-0.261,1.311
			c-0.176,0.268-0.461,0.402-0.85,0.402c-0.208,0-0.391-0.026-0.55-0.079c-0.16-0.051-0.3-0.115-0.423-0.192
			s-0.233-0.162-0.325-0.255c-0.094-0.092-0.17-0.175-0.232-0.247v-5.712h-1.248v7.411h1.142v-0.834h0.031
			c0.05,0.083,0.128,0.183,0.229,0.301c0.104,0.119,0.232,0.232,0.387,0.34c0.154,0.108,0.334,0.198,0.541,0.27
			c0.204,0.072,0.438,0.108,0.694,0.108c0.844,0,1.442-0.33,1.791-0.988c0.071,0.103,0.169,0.213,0.293,0.332
			c0.123,0.119,0.267,0.226,0.431,0.324c0.166,0.098,0.351,0.178,0.558,0.239c0.206,0.062,0.432,0.093,0.679,0.093
			c1.504,0,2.254-0.875,2.254-2.624v-4.972h-1.251v4.771c0,0.606-0.107,1.043-0.322,1.311c-0.219,0.268-0.536,0.402-0.958,0.402
			c-0.35,0-0.642-0.085-0.871-0.255c-0.234-0.17-0.415-0.332-0.551-0.487c0.022-0.113,0.036-0.235,0.049-0.363
			c0.01-0.128,0.016-0.264,0.016-0.408v-4.972H200.208z M210.382,71.242h-1.621v-4.106c0-0.525,0.066-0.882,0.201-1.073
			c0.134-0.189,0.358-0.285,0.68-0.285c0.185,0,0.343,0.026,0.478,0.077c0.133,0.051,0.23,0.098,0.294,0.14l0.17-1.004
			c-0.053-0.041-0.176-0.105-0.372-0.193c-0.195-0.087-0.456-0.13-0.786-0.13c-0.639,0-1.117,0.177-1.436,0.532
			c-0.32,0.355-0.48,0.945-0.48,1.769v4.275h-0.894v0.833l0.894,0.186l0.14,2.068h1.112v-2.068h1.774L210.382,71.242z"/>
	</g>
	<g id="Adler-und-Saeulenelement">
		<path d="M48.202,38.292c0.036-0.291,0.056-0.59,0.056-0.896c0-0.167,0.001-0.362-0.019-0.582c2.585-0.037,4.853-1.9,4.853-4.042
			c0-1.09-0.711-1.912-1.111-2.404c0.089-0.02,0.181-0.04,0.272-0.062c0.378,0.33,1.453,1.499,1.453,2.978
			C53.705,35.853,51.137,38.238,48.202,38.292 M45.597,29.341c-0.048-0.287-0.157-0.546-0.323-0.77
			c0.009-0.261,0.117-0.512,0.539-0.307c-0.229,0.234-0.052,0.648-0.052,0.648s0.467-0.216,0.37-0.525
			C46.823,28.554,46.325,29.484,45.597,29.341 M44.997,30.661c-0.092-0.383-0.29-0.778-0.54-1.075
			c-0.229-0.27-0.606-0.59-1.115-0.59c-0.232,0-0.622,0.109-0.87,0.214c-0.091-0.168-0.272-0.575-0.272-0.757
			c0-0.188,0.317-0.379,0.926-0.379c1.339,0,2.138,0.604,2.138,1.62C45.265,30.048,45.123,30.372,44.997,30.661 M48.435,47.915
			c0.156,0,0.23,0.024,0.321,0.058c0.385,1.049,1.871,3.027,1.934,3.112l0.013,0.018l0.022-0.005
			c0.364-0.058,1.294-0.198,2.072-0.198h0.019c0.084,0,0.181,0,0.241,0.061c0.051,0.05,0.076,0.138,0.076,0.264
			c0,0.193-0.082,0.524-0.181,0.666c-0.272-0.297-0.714-0.431-1.423-0.431c-0.212,0-0.464,0.064-0.601,0.101l-0.055,0.011
			l-0.063,0.017l0.408,0.408c0.63,0.631,1.175,1.175,1.175,1.537c0,0.218-0.213,0.502-0.407,0.627
			c-0.042-0.663-0.712-1.55-1.365-2.046l-0.056-0.042l-0.01,0.234c-0.009,0.158-0.023,0.396-0.023,0.649
			c0,1.263-0.128,1.455-0.565,1.455c-0.068,0-0.17-0.02-0.234-0.043c0.246-0.305,0.344-0.707,0.344-1.413l-0.004-0.325l-0.004-0.263
			c0-0.29,0.03-0.503,0.054-0.676l0.013-0.098l-0.069-0.009c-0.204-0.028-0.584-0.081-0.875-0.081c-0.624,0-1.047,0.058-1.353,0.346
			c-0.202-0.165-0.41-0.446-0.41-0.624c0-0.263,0.164-0.284,0.379-0.284c0.109,0,0.209,0.016,0.35,0.033
			c0.27,0.04,0.672,0.099,1.503,0.099h0.052l-0.017-0.051c-0.209-0.602-0.789-1.48-1.715-2.607
			C48.061,48.112,48.142,47.915,48.435,47.915 M40.425,51.021l-0.018,0.051h0.053c0.83,0,1.234-0.06,1.502-0.099
			c0.142-0.017,0.242-0.033,0.351-0.033c0.213,0,0.379,0.021,0.379,0.284c0,0.178-0.208,0.459-0.409,0.624
			c-0.308-0.289-0.73-0.346-1.353-0.346c-0.292,0-0.674,0.053-0.877,0.081l-0.032,0.004l-0.037,0.005l0.012,0.098
			c0.025,0.173,0.055,0.386,0.055,0.676l-0.004,0.263l-0.004,0.325c0,0.706,0.097,1.108,0.345,1.413
			c-0.064,0.023-0.167,0.043-0.234,0.043c-0.438,0-0.565-0.192-0.565-1.455c0-0.254-0.014-0.491-0.022-0.649l-0.013-0.235
			l-0.054,0.043c-0.651,0.497-1.324,1.384-1.364,2.046c-0.195-0.125-0.408-0.41-0.408-0.627c0-0.361,0.545-0.905,1.175-1.537
			l0.362-0.361l0.046-0.047l-0.119-0.028c-0.137-0.037-0.388-0.101-0.602-0.101c-0.708,0-1.148,0.133-1.422,0.431
			c-0.099-0.141-0.18-0.472-0.18-0.666c0-0.126,0.024-0.214,0.075-0.264c0.062-0.061,0.157-0.061,0.241-0.061h0.019
			c0.778,0,1.709,0.14,2.072,0.198l0.022,0.005l0.013-0.018c0.063-0.085,1.547-2.063,1.934-3.112
			c0.089-0.034,0.165-0.058,0.32-0.058c0.292,0,0.374,0.198,0.458,0.5C41.213,49.542,40.635,50.419,40.425,51.021 M36.413,33.283
			c0-1.479,1.076-2.648,1.455-2.978c0.09,0.022,0.182,0.042,0.272,0.062c-0.402,0.492-1.113,1.314-1.113,2.404
			c0,2.164,2.312,4.043,4.93,4.043c-0.017,0.184-0.026,0.38-0.026,0.581c0,0.319,0.018,0.616,0.049,0.896
			C39.02,38.273,36.413,35.871,36.413,33.283 M56.27,37.84c1.328,2.1,2.368,2.065,3.937,2.065c-1.299-0.995-2.157-2.27-2.567-2.922
			l-2.426-3.881c-0.237-1.198-0.856-2.32-1.785-3.153c0.313-0.119,0.572-0.243,0.729-0.361c-1.584,0-3.155-0.804-4.019-0.804
			c-0.556,0-0.913,0.332-0.913,0.77c0.037,0.489,0.539,0.987,1.47,0.987c0.209,0,0.479-0.028,0.775-0.078
			c0.504,0.703,0.91,1.336,0.91,2.242c0,1.699-2.032,3.024-4.083,3.024c-0.117,0-0.228-0.006-0.342-0.013
			c-0.186-0.422-0.805-1.128-0.805-1.933c0-1.351,0.881-2.454,0.881-3.791c0-0.832-0.404-1.347-0.561-1.561
			c0.253-0.233,0.527-0.52,0.592-0.717c-0.146,0.063-0.321,0.071-0.573,0.071c-0.983,0-1.785-0.256-2.566-0.256
			c-0.446,0-0.566,0.138-0.566,0.269c0,0.049,0.006,0.098,0.02,0.121c-0.167-0.064-0.322-0.108-0.508-0.142
			c-0.231-0.043-0.479-0.065-0.743-0.065c-0.95,0-1.287,0.398-1.287,0.74c0,0.289,0.227,0.814,0.486,1.217
			c0.37-0.188,0.814-0.313,1.017-0.313c0.505,0,0.952,0.479,1.19,1.047c-0.339,0.042-0.403,0.056-0.746,0.056
			c-0.925,0-1.554-0.33-1.684-0.33c-0.012,0-0.036,0.006-0.036,0.027c0,0.13,0.262,0.472,0.778,0.661
			c0.681,0.249,1.701,0.352,1.871,0.381c0,0.03-0.173,0.352-0.366,0.414c-0.041,0.013-0.073,0.015-0.121,0.003
			c-0.71-0.14-0.909-0.199-1.811-0.542c-0.027-0.01-0.043,0.006-0.043,0.035c0,0.357,0.923,1.145,1.751,1.447
			c-0.692,0.882-1.555,1.785-1.962,3.162c-0.115,0.007-0.227,0.013-0.342,0.013c-2.051,0-4.083-1.325-4.083-3.024
			c0-0.906,0.406-1.539,0.91-2.242c0.296,0.049,0.564,0.078,0.775,0.078c0.931,0,1.435-0.499,1.471-0.987
			c0-0.438-0.357-0.77-0.914-0.77c-0.865,0-2.433,0.804-4.02,0.804c0.157,0.119,0.417,0.243,0.728,0.361
			c-0.927,0.833-1.547,1.955-1.783,3.153l-2.425,3.881c-0.409,0.652-1.271,1.927-2.569,2.922c1.57,0,2.61,0.035,3.938-2.065
			l1.244-1.99c0.093,0.258,0.205,0.51,0.339,0.756l-2.475,3.958c-0.411,0.657-1.265,1.92-2.568,2.922c1.57,0,2.61,0.037,3.939-2.063
			l2.129-3.41c0.16,0.17,0.327,0.336,0.503,0.494l-3.004,4.81c-0.413,0.659-1.261,1.919-2.567,2.919c1.569,0,2.61,0.038,3.938-2.063
			l2.929-4.689c0.193,0.122,0.391,0.24,0.596,0.352l-3.577,5.723c-0.412,0.658-1.261,1.915-2.567,2.918
			c1.57,0,2.611,0.036,3.939-2.063l3.682-5.894c0.217,0.083,0.438,0.164,0.663,0.235l-4.161,6.659
			c-0.406,0.649-1.273,1.929-2.565,2.918c1.568,0,2.609,0.037,3.936-2.063l4.435-7.096c0.045,0.008,0.089,0.014,0.133,0.023
			c0.121,0.384,0.205,0.742,0.205,1.099c0,2.229-1.463,4.2-3.22,5.719c0.113,0.05,0.309,0.067,0.488,0.067
			c0.364,0,0.597-0.019,0.762-0.048c-0.407,0.925-1.281,2.12-1.723,2.737c-0.574-0.104-1.411-0.185-1.958-0.185
			c-0.573,0-0.639,0.335-0.639,0.635c0,0.521,0.245,0.934,0.527,1.166c0.106-0.267,0.32-0.622,1.379-0.622
			c0.02,0,0.057,0.002,0.106,0.006c-0.309,0.344-1.278,1.127-1.278,1.758c0,0.418,0.458,1.044,1.061,1.044
			c-0.036-0.134-0.032-0.258-0.032-0.352c0-0.511,0.453-1.109,0.835-1.526c-0.011,0.124-0.005,0.111-0.005,0.256
			c0,1.208,0.108,1.764,0.876,1.764c0.375,0,0.635-0.207,0.725-0.268c-0.499-0.458-0.524-0.819-0.524-1.497
			c0.001-0.176,0.003-0.35,0.005-0.586c0.002-0.155-0.001-0.36-0.026-0.508c0.274-0.038,0.385-0.038,0.598-0.038
			c0,0,1.088-0.086,1.351,0.48c0.296-0.271,0.726-0.654,0.726-1.076c0-0.279-0.132-0.594-0.694-0.594
			c-0.212,0-0.881,0.13-1.439,0.13c0.15-0.334,0.818-1.313,1.398-2.021c0.088,0.275,0.224,0.572,0.527,0.816
			c0.043-0.457,0.311-1.901,1.024-2.746c0.083,0.572,0.195,1.156,0.195,2.39c0,3.003-0.721,5.22-2.253,5.643
			c0.2,0.345,0.621,0.659,1.058,0.659c0.561,0,0.865-0.634,1.177-1.233c0.162,0.442,0.609,1.523,1.058,1.523s0.897-1.082,1.06-1.523
			c0.311,0.599,0.617,1.233,1.177,1.233c0.437,0,0.859-0.313,1.058-0.659c-1.532-0.422-2.254-2.64-2.254-5.643
			c0-1.234,0.111-1.818,0.194-2.39c0.714,0.845,0.984,2.29,1.024,2.746c0.305-0.244,0.442-0.541,0.529-0.816
			c0.579,0.709,1.248,1.688,1.398,2.021c-0.56,0-1.229-0.13-1.44-0.13c-0.561,0-0.693,0.315-0.693,0.594
			c0,0.421,0.43,0.804,0.726,1.076c0.26-0.566,1.351-0.48,1.351-0.48c0.21,0,0.322,0,0.597,0.038
			c-0.026,0.148-0.027,0.353-0.026,0.508c0.002,0.237,0.002,0.41,0.004,0.586c0,0.678-0.026,1.038-0.524,1.497
			c0.089,0.062,0.349,0.268,0.725,0.268c0.767,0,0.876-0.556,0.876-1.764c0-0.145,0.004-0.132-0.006-0.256
			c0.383,0.417,0.836,1.015,0.836,1.526c0,0.093,0.005,0.217-0.033,0.352c0.604,0,1.064-0.626,1.064-1.044
			c0-0.631-0.97-1.414-1.281-1.758c0.051-0.004,0.087-0.006,0.106-0.006c1.061,0,1.275,0.355,1.381,0.622
			c0.282-0.232,0.527-0.645,0.527-1.166c0-0.299-0.065-0.635-0.639-0.635c-0.547,0-1.383,0.081-1.958,0.185
			c-0.443-0.618-1.315-1.812-1.724-2.737c0.166,0.029,0.4,0.048,0.762,0.048c0.182,0,0.376-0.017,0.489-0.067
			c-1.756-1.52-3.219-3.49-3.219-5.719c0-0.357,0.084-0.714,0.205-1.099c0.042-0.009,0.089-0.015,0.133-0.023l4.435,7.096
			c1.327,2.099,2.368,2.063,3.936,2.063c-1.291-0.99-2.159-2.27-2.564-2.918l-4.163-6.659c0.226-0.071,0.448-0.152,0.665-0.235
			l3.681,5.894c1.329,2.099,2.369,2.063,3.938,2.063c-1.306-1.003-2.155-2.261-2.567-2.918l-3.575-5.723
			c0.202-0.112,0.401-0.229,0.593-0.352l2.93,4.689c1.328,2.101,2.368,2.063,3.938,2.063c-1.306-1-2.154-2.261-2.567-2.919
			l-3.004-4.81c0.176-0.158,0.345-0.324,0.501-0.494l2.131,3.41c1.327,2.099,2.368,2.063,3.938,2.063
			c-1.305-1.001-2.157-2.265-2.569-2.922l-2.473-3.958c0.133-0.246,0.245-0.499,0.339-0.756L56.27,37.84z"/>
		<path d="M72.626,54.717h-4.54V28.771h4.54V54.717z"/>
		<path style="fill:#FF0000;" d="M72.626,80.663h-4.54V54.717h4.54V80.663z"/>
		<path style="fill:#FFCC00;" d="M72.626,106.609h-4.54V80.663h4.54V106.609z"/>
	</g>
</g>
</svg>
